<svg width="26" height="22" viewBox="0 0 26 22" fill="none" xmlns="http://www.w3.org/2000/svg">
<path d="M6.60368 12.4831C6.49594 12.4831 6.39261 12.4435 6.31642 12.3728C6.24023 12.3022 6.19743 12.2064 6.19743 12.1065C6.19743 12.0066 6.24023 11.9108 6.31642 11.8401C6.39261 11.7695 6.49594 11.7298 6.60368 11.7298H7.19402C7.53992 11.7237 7.88099 11.8059 8.18002 11.9672C8.51171 12.1681 8.74792 12.479 8.84017 12.8363C8.83789 12.8409 8.83671 12.8459 8.83671 12.851C8.83671 12.8561 8.83789 12.8611 8.84017 12.8657L8.94174 13.2581H9.17448V11.7082C9.17504 11.608 9.21824 11.512 9.29471 11.4411C9.37117 11.3702 9.47472 11.3301 9.58285 11.3296H11.7389C11.8471 11.3301 11.9506 11.3702 12.0271 11.4411C12.1035 11.512 12.1467 11.608 12.1473 11.7082V12.6283C12.3181 12.4682 12.5214 12.341 12.7454 12.2541C12.9695 12.1673 13.2099 12.1224 13.4528 12.1222C13.6694 12.1213 13.8844 12.1565 14.0876 12.2261C14.368 11.9497 14.7255 11.7507 15.1205 11.6513C15.5155 11.5518 15.9324 11.5557 16.3252 11.6626C16.7179 11.7695 17.071 11.9751 17.3453 12.2568C17.6196 12.5384 17.8044 12.885 17.8792 13.2581H17.9787C18.0849 13.2586 18.1866 13.2981 18.2616 13.3679C18.3365 13.4378 18.3786 13.5323 18.3786 13.6308C18.3774 13.6693 18.371 13.7076 18.3595 13.7446L17.3016 17.6683C17.2813 17.7502 17.2315 17.8233 17.1603 17.8754C17.0891 17.9275 17.0008 17.9555 16.9102 17.9547H10.3128C10.4567 18.4412 10.6027 18.712 10.791 18.8336C11.028 18.9768 11.4406 18.9866 12.1304 18.9768H16.8044C16.911 18.9768 17.0132 19.0161 17.0886 19.086C17.164 19.1559 17.2064 19.2507 17.2064 19.3496C17.2064 19.4484 17.164 19.5432 17.0886 19.6131C17.0132 19.683 16.911 19.7223 16.8044 19.7223H12.1494C11.3031 19.7223 10.7677 19.7223 10.3467 19.4535C9.92562 19.1848 9.68653 18.7277 9.46013 17.8958L8.07634 13.056C8.07634 13.056 8.07634 13.056 8.07634 13.0383C8.05789 12.9514 8.02111 12.8687 7.9681 12.795C7.91508 12.7212 7.84689 12.6579 7.76742 12.6087C7.59296 12.5174 7.39412 12.4738 7.19402 12.4831H6.60368ZM24.2396 10.3251V20.7228C24.239 21.0614 24.0937 21.386 23.8355 21.6254C23.5773 21.8648 23.2273 21.9995 22.8621 22H3.13786C2.95688 21.9997 2.77774 21.9662 2.61072 21.9016C2.4437 21.837 2.29208 21.7424 2.16456 21.6233C2.03642 21.505 1.93475 21.3643 1.8654 21.2095C1.79605 21.0546 1.76037 20.8886 1.76042 20.7209V10.3389C2.17005 10.4015 2.58558 10.4245 3.00033 10.4075V20.6267C3.00016 20.6559 3.00625 20.6847 3.01823 20.7117C3.03022 20.7386 3.04787 20.7631 3.07015 20.7837C3.0925 20.804 3.11897 20.82 3.14802 20.8307C3.17707 20.8415 3.20814 20.8469 3.23943 20.8464H10.3044C10.3603 20.6508 10.4844 20.4778 10.6574 20.3544C10.8304 20.2309 11.0425 20.1639 11.2607 20.1637C11.4793 20.1638 11.6917 20.2307 11.865 20.3542C12.0383 20.4776 12.1629 20.6507 12.2192 20.8464H14.6419C14.6979 20.6508 14.822 20.4778 14.995 20.3544C15.1679 20.2309 15.38 20.1639 15.5983 20.1637C15.817 20.1634 16.0295 20.2303 16.2029 20.3538C16.3763 20.4773 16.5007 20.6505 16.5568 20.8464H22.7606C22.824 20.8464 22.8848 20.8231 22.9296 20.7815C22.9745 20.7399 22.9997 20.6835 22.9997 20.6248V10.3585C23.413 10.3902 23.8288 10.3797 24.2396 10.3271V10.3251ZM14.5594 14.7805C14.5721 14.7202 14.607 14.6658 14.6582 14.6268C14.7093 14.5877 14.7735 14.5663 14.8398 14.5663C14.906 14.5663 14.9702 14.5877 15.0214 14.6268C15.0725 14.6658 15.1074 14.7202 15.1201 14.7805V16.2224C15.1074 16.2827 15.0725 16.337 15.0214 16.3761C14.9702 16.4152 14.906 16.4365 14.8398 16.4365C14.7735 16.4365 14.7093 16.4152 14.6582 16.3761C14.607 16.337 14.5721 16.2827 14.5594 16.2224V14.7805ZM12.8794 14.7805C12.8921 14.7202 12.927 14.6658 12.9781 14.6268C13.0293 14.5877 13.0935 14.5663 13.1598 14.5663C13.226 14.5663 13.2902 14.5877 13.3414 14.6268C13.3925 14.6658 13.4274 14.7202 13.4401 14.7805V16.2224C13.4274 16.2827 13.3925 16.337 13.3414 16.3761C13.2902 16.4152 13.226 16.4365 13.1598 16.4365C13.0935 16.4365 13.0293 16.4152 12.9781 16.3761C12.927 16.337 12.8921 16.2827 12.8794 16.2224V14.7805ZM11.2015 14.7805C11.2142 14.7202 11.2491 14.6658 11.3002 14.6268C11.3514 14.5877 11.4156 14.5663 11.4819 14.5663C11.5481 14.5663 11.6123 14.5877 11.6635 14.6268C11.7146 14.6658 11.7495 14.7202 11.7622 14.7805V16.2224C11.7495 16.2827 11.7146 16.337 11.6635 16.3761C11.6123 16.4152 11.5481 16.4365 11.4819 16.4365C11.4156 16.4365 11.3514 16.4152 11.3002 16.3761C11.2491 16.337 11.2142 16.2827 11.2015 16.2224V14.7805ZM14.6758 12.5557C14.9081 12.7473 15.088 12.9874 15.2005 13.2561H17.1662C17.1019 13.0207 16.9732 12.8048 16.7924 12.6291C16.6116 12.4535 16.3849 12.3242 16.1343 12.2537C15.8838 12.1832 15.6178 12.174 15.3622 12.2269C15.1067 12.2798 14.8702 12.3931 14.6758 12.5557ZM15.3338 14.0016H9.18083L10.097 17.2014H16.5991L17.4455 14.0016H15.3338ZM11.6797 13.2483C11.6797 13.2228 11.703 13.1953 11.7157 13.1698V11.9809C11.7157 11.9081 11.6845 11.8382 11.6289 11.7867C11.5733 11.7352 11.498 11.7063 11.4194 11.7063H9.94467C9.8661 11.7063 9.79076 11.7352 9.7352 11.7867C9.67965 11.8382 9.64844 11.9081 9.64844 11.9809V13.2483H11.6797ZM22.4474 9.10291C22.1829 8.98716 21.5313 8.83021 21.326 8.64188C21.1475 8.4749 20.9964 8.28453 20.8774 8.07687C20.7585 8.28453 20.6074 8.4749 20.4289 8.64188C19.9761 9.05975 18.9478 9.32067 18.2516 9.32067C17.5555 9.32067 16.5272 9.05975 16.0807 8.64188C15.9022 8.4749 15.7511 8.28453 15.6322 8.07687C15.5133 8.28453 15.3621 8.4749 15.1836 8.64188C14.7308 9.05975 13.7025 9.32067 13.0064 9.32067C12.3102 9.32067 11.2819 9.05975 10.8291 8.64188C10.6461 8.47571 10.4906 8.2853 10.3678 8.07687C10.2489 8.28453 10.0978 8.4749 9.91928 8.64188C9.46648 9.05975 8.43816 9.32067 7.74203 9.32067C7.0459 9.32067 6.01758 9.05975 5.56478 8.64188C5.38626 8.4749 5.23512 8.28453 5.11622 8.07687C4.99731 8.28453 4.84617 8.4749 4.66765 8.64188C4.36931 8.91653 3.58431 9.12449 3.1696 9.23043C2.33383 9.32459 1.34782 9.21277 0.72787 8.64188C0.496459 8.42694 0.313052 8.17178 0.188154 7.89102C0.063255 7.61026 -0.000681547 7.30941 5.47847e-06 7.00571V6.09542C0.000648279 6.05021 0.0129838 6.00581 0.0359755 5.96594L1.79639 0.737649C1.94027 0.308008 2.29362 0.0313893 2.97706 0H22.8854C23.499 0.0608168 23.8989 0.30016 24.064 0.733726L25.9683 5.95613C25.9925 5.99362 26.0063 6.03608 26.0085 6.07972C26.0094 6.08885 26.0094 6.09805 26.0085 6.10719V7.00571C26.0083 7.30982 25.9434 7.61092 25.8174 7.8917C25.6914 8.17248 25.5068 8.42742 25.2743 8.64188C24.5379 9.32459 23.4165 9.30694 22.4559 9.10291H22.4474Z" fill="#333333"/>
</svg>
