<svg width="14" height="16" viewBox="0 0 14 16" fill="none" xmlns="http://www.w3.org/2000/svg">
<path fill-rule="evenodd" clip-rule="evenodd" d="M7.00063 0C8.12063 0 9.02826 0.934896 9.02826 2.08854C9.02826 3.24219 8.12063 4.17708 7.00063 4.17708C5.88063 4.17708 4.973 3.24219 4.973 2.08854C4.97174 0.934896 5.88063 0 7.00063 0ZM0.433589 6.47787H13.5664C13.8053 6.47787 14 6.67969 14 6.92448V9.07682C14 9.32162 13.8041 9.52344 13.5664 9.52344H0.433589C0.195937 9.52214 0 9.32162 0 9.07682V6.92318C0 6.67839 0.194673 6.47787 0.433589 6.47787ZM7.00063 11.8229C8.12063 11.8229 9.02826 12.7578 9.02826 13.9115C9.02826 15.0651 8.12063 16 7.00063 16C5.88063 16 4.973 15.0651 4.973 13.9115C4.97174 12.7578 5.88063 11.8229 7.00063 11.8229Z" fill="white"/>
</svg>
