<svg width="25" height="20" viewBox="0 0 25 20" fill="none" xmlns="http://www.w3.org/2000/svg">
<path fill-rule="evenodd" clip-rule="evenodd" d="M14.7237 7.30554C14.8053 7.4345 14.8495 7.58217 14.8519 7.7332C14.8519 8.53948 13.5579 9.1947 11.9609 9.1947C10.3638 9.1947 9.07186 8.53948 9.07186 7.7332C9.0741 7.57853 9.1198 7.42734 9.2041 7.29573C9.57235 7.88426 10.6669 8.31976 11.9609 8.31976C13.2548 8.31976 14.3392 7.89407 14.7135 7.3075C14.7135 7.29377 14.7135 7.29181 14.7257 7.3075L14.7237 7.30554ZM5.10864 17.3575V9.74792H8.66089C10.1725 10.0049 11.6699 10.7896 13.1755 11.7077H15.9322C17.1814 11.7803 17.8345 13.0005 16.6219 13.8009C15.6555 14.4855 14.3839 14.4463 13.0697 14.3345C12.1684 14.2913 12.1297 15.4586 13.0697 15.4625C13.3972 15.488 13.7533 15.4134 14.0625 15.4134C15.6901 15.4134 17.039 15.1113 17.8609 13.8676L18.2678 12.9377L22.3796 10.9858C24.4324 10.3345 25.8931 12.4041 24.3795 13.844C21.5181 15.8589 18.4568 17.5957 15.2405 19.0289C12.9761 20.357 10.7117 20.3119 8.45133 19.0289L5.10864 17.3575ZM0 9.02403H4.04053V18.1226H0V9.02403ZM23.0916 7.86464C23.1535 7.99524 23.1861 8.13696 23.1873 8.28053C23.1873 9.2614 21.6003 10.0716 19.6452 10.0716C17.69 10.0716 16.1031 9.26925 16.1031 8.28053C16.1061 8.0911 16.1624 7.90602 16.2659 7.74497C16.7175 8.47278 18.0603 9.00049 19.6452 9.00049C21.1385 9.00049 22.408 8.55125 22.9329 7.88033C23.0469 7.7332 23.0041 7.68416 23.0916 7.86464ZM23.053 5.62629C23.1387 5.77599 23.1848 5.94377 23.1873 6.11476C23.1873 7.09563 21.6003 7.90584 19.6452 7.90584C17.69 7.90584 16.1031 7.10348 16.1031 6.11476C16.1082 5.9218 16.168 5.73388 16.276 5.57136C16.7277 6.29917 18.0705 6.82688 19.6554 6.82688C21.2036 6.82688 22.5179 6.32663 22.998 5.62825C23.0448 5.56155 23.0265 5.54978 23.0631 5.61844L23.053 5.62629ZM20.9208 1.11427L20.8842 1.50662L19.1447 1.35949C19.2888 1.53677 19.3909 1.74234 19.4438 1.96175L19.0247 1.92447C18.9855 1.78417 18.9214 1.65144 18.8354 1.53212C18.7503 1.39589 18.6249 1.28727 18.4753 1.22021L18.514 0.859245L20.9005 1.05542C20.9473 1.05542 20.933 1.05542 20.9269 1.10839L20.9208 1.11427ZM19.8364 0.368808C21.3542 0.40412 22.5566 0.884747 22.5566 1.46542C22.5566 2.07553 21.2524 2.56793 19.6452 2.56793C18.0379 2.56793 16.7338 2.07357 16.7338 1.46542C16.7338 0.886709 17.9179 0.411967 19.4173 0.368808C19.5577 0.368808 19.6981 0.368808 19.8364 0.368808ZM19.8853 0C21.7285 0.0647376 23.1934 0.843551 23.1934 1.79107C23.1934 2.77195 21.6064 3.58215 19.6513 3.58215C17.6961 3.58215 16.1092 2.77783 16.1092 1.79107C16.1031 0.845512 17.5557 0.0686611 19.3949 0C19.5577 0 19.7225 0 19.8853 0ZM23.1934 3.98431C23.1934 4.96518 21.6064 5.77538 19.6513 5.77538C17.6961 5.77538 16.1092 4.97303 16.1092 3.98431C16.1109 3.80309 16.1629 3.62561 16.2598 3.47033C16.6829 4.20795 18.042 4.74743 19.6452 4.74743C20.695 4.74743 22.463 4.44335 23.0387 3.47033C23.1342 3.6261 23.1854 3.80337 23.1873 3.98431H23.1934ZM13.0208 3.6155L12.9862 3.97646L11.5621 3.85875C11.6777 4.0042 11.7589 4.17226 11.8001 4.35115L11.4522 4.31584C11.4208 4.20038 11.3692 4.09091 11.2996 3.99215C11.2282 3.88202 11.1259 3.7936 11.0046 3.73713L11.0311 3.44483L13.0046 3.60961L13.0208 3.6155ZM12.3474 3.05836C13.4827 3.12506 14.3514 3.49779 14.3514 3.94507C14.3514 4.44139 13.2874 4.84355 11.9751 4.84355C10.6628 4.84355 9.60083 4.43943 9.60083 3.94507C9.60083 3.5076 10.4268 3.14272 11.5214 3.06425C11.7964 3.04463 12.0724 3.04463 12.3474 3.06425V3.05836ZM12.4003 2.7641C13.7797 2.86807 14.8519 3.47621 14.8519 4.20991C14.8519 5.01618 13.5579 5.67141 11.9609 5.67141C10.3638 5.67141 9.07186 5.01618 9.07186 4.20991C9.07186 3.47425 10.1461 2.86611 11.5438 2.7641C11.8241 2.74251 12.1058 2.74251 12.3861 2.7641H12.4003ZM14.742 5.60275C14.8103 5.72321 14.8473 5.85783 14.8499 5.9951C14.8519 6.80726 13.5559 7.45463 11.9588 7.45463C10.3617 7.45463 9.06982 6.79941 9.06982 5.99313C9.06986 5.84506 9.11209 5.69983 9.19189 5.57332C9.54793 6.17558 10.6506 6.61501 11.9588 6.61501C13.267 6.61501 14.3453 6.18538 14.7156 5.5949C14.7319 5.56744 14.7156 5.56547 14.742 5.5949V5.60275Z" fill="#105F49"/>
</svg>
