<svg width="25" height="25" viewBox="0 0 25 25" fill="none" xmlns="http://www.w3.org/2000/svg">
<path d="M12.5 1.23061e-05C15.3931 -0.000814657 18.1969 1.00157 20.4337 2.83635C22.6705 4.67113 24.2019 7.22477 24.7669 10.0621C25.3319 12.8995 24.8955 15.8449 23.5322 18.3966C22.1688 20.9483 19.9629 22.9483 17.2902 24.0557C14.6175 25.1632 11.6435 25.3096 8.87493 24.4701C6.10638 23.6305 3.71461 21.8569 2.1072 19.4515C0.499783 17.0461 -0.223808 14.1577 0.059728 11.2786C0.343264 8.39949 1.61638 5.70776 3.66214 3.66212C4.82114 2.49926 6.19865 1.57705 7.7154 0.948559C9.23215 0.320069 10.8582 -0.0022957 12.5 1.23061e-05ZM10.6914 11.8856C11.2854 11.4787 11.5845 10.9477 11.5336 9.73309V6.61012C11.5336 6.17474 10.7361 6.12184 10.6975 6.61012L10.6669 9.14308C10.6669 9.23751 10.6294 9.32807 10.5627 9.39484C10.4959 9.46161 10.4053 9.49912 10.3109 9.49912C10.2165 9.49912 10.1259 9.46161 10.0591 9.39484C9.99237 9.32807 9.95486 9.23751 9.95486 9.14308L9.98538 6.52264C9.98538 6.0547 9.21837 6.00791 9.21023 6.52264C9.21023 7.25099 9.17971 8.41676 9.17971 9.14308C9.18696 9.18733 9.1845 9.23263 9.1725 9.27583C9.16051 9.31904 9.13925 9.35912 9.11022 9.39329C9.08119 9.42747 9.04508 9.45492 9.00438 9.47375C8.96368 9.49257 8.91938 9.50233 8.87454 9.50233C8.8297 9.50233 8.78539 9.49257 8.7447 9.47375C8.704 9.45492 8.66788 9.42747 8.63885 9.39329C8.60982 9.35912 8.58857 9.31904 8.57657 9.27583C8.56457 9.23263 8.56211 9.18733 8.56936 9.14308L8.59988 6.54095C8.59348 6.46677 8.56771 6.39558 8.52516 6.33448C8.48261 6.27339 8.42476 6.22454 8.35741 6.19282C8.29005 6.1611 8.21555 6.14762 8.14135 6.15373C8.06715 6.15984 7.99586 6.18532 7.9346 6.22763C7.65383 6.40667 7.7108 6.76678 7.69859 7.07195L7.60094 10.0606C7.61518 10.9294 7.84304 11.6353 8.5246 11.9365C8.65535 11.9884 8.79202 12.0239 8.9315 12.0422L8.7016 18.158C8.6989 18.2593 8.71635 18.3601 8.75295 18.4546C8.78954 18.5491 8.84455 18.6354 8.91478 18.7085C8.985 18.7815 9.06905 18.8399 9.16203 18.8802C9.25501 18.9205 9.35507 18.942 9.45641 18.9433H9.54999C9.6638 18.9414 9.77612 18.9171 9.88048 18.8716C9.98484 18.8262 10.0792 18.7605 10.158 18.6784C10.2369 18.5964 10.2987 18.4995 10.34 18.3934C10.3812 18.2873 10.4011 18.1741 10.3984 18.0603L10.1949 12.0402C10.3696 12.0217 10.5389 11.9692 10.6934 11.8856H10.6914ZM14.3535 17.9382L14.3433 12.5651C12.0463 11.2386 12.7788 6.12794 15.0757 6.15643C17.8671 6.18898 18.1987 11.9161 15.798 12.5448L15.975 17.9647C16.0095 19.2118 14.3474 19.3278 14.3474 17.9382H14.3535ZM20.2006 4.79941C18.4178 3.01984 16.0732 1.91344 13.5661 1.66869C11.059 1.42395 8.54468 2.05601 6.45137 3.45718C4.35806 4.85836 2.8153 6.94197 2.08593 9.35304C1.35656 11.7641 1.4857 14.3535 2.45135 16.68C3.41701 19.0066 5.15943 20.9263 7.38177 22.1123C9.60411 23.2982 12.1689 23.6769 14.6392 23.184C17.1094 22.691 19.3324 21.3568 20.9292 19.4086C22.5261 17.4605 23.3982 15.019 23.3968 12.5C23.3978 11.0691 23.116 9.65219 22.5675 8.33064C22.0189 7.00909 21.2146 5.80901 20.2006 4.79941Z" fill="#5C5C5C"/>
</svg>
