<svg width="30" height="25" viewBox="0 0 30 25" fill="none" xmlns="http://www.w3.org/2000/svg">
<path fill-rule="evenodd" clip-rule="evenodd" d="M4.56299 16.0941L14.4482 7.20799C14.9707 6.73857 15.0366 6.71883 15.5786 7.20799L25.437 16.0941V25.0065H18.1128V18.9852C18.1122 18.7893 18.0253 18.6016 17.8711 18.4631C17.7169 18.3246 17.5081 18.2466 17.29 18.246H12.7148C12.4968 18.2466 12.2879 18.3246 12.1338 18.4631C11.9796 18.6016 11.8927 18.7893 11.8921 18.9852V25.0065H4.56787V16.0941H4.56299ZM14.6899 0.192988L0 12.5866L3.62305 14.2954L13.999 4.89379C14.8877 4.09094 14.8975 4.07339 15.7788 4.85869L26.377 14.291L30 12.5822L15.2881 0.173246C15.0244 -0.04611 14.9854 -0.0746263 14.6899 0.192988Z" fill="#A8A8A8"/>
</svg>
