<svg width="20" height="25" viewBox="0 0 20 25" fill="none" xmlns="http://www.w3.org/2000/svg">
<path fill-rule="evenodd" clip-rule="evenodd" d="M2.12439 7.56022H18.0011C18.1287 7.55478 18.2564 7.56571 18.3815 7.59277C18.5883 7.64146 18.7782 7.75145 18.9293 7.91016C19.1048 8.0903 19.2152 8.33095 19.2412 8.58968C19.246 8.6875 19.2422 8.7856 19.2297 8.88265L17.8775 23.8668V23.8932V23.9502C17.8686 24.0121 17.8559 24.0732 17.8395 24.1333V24.1455C17.7678 24.3819 17.6291 24.5886 17.4427 24.7369C17.2563 24.8853 17.0314 24.968 16.7992 24.9736H3.29403C3.21376 24.9694 3.1341 24.9565 3.0563 24.9349C2.97985 24.9105 2.90593 24.8777 2.83568 24.8372C2.6699 24.7352 2.52989 24.5915 2.42781 24.4185C2.32574 24.2454 2.26467 24.0484 2.24991 23.8444L0.918604 8.89282C0.903412 8.78102 0.899586 8.66778 0.907192 8.55509C0.933799 8.29994 1.04355 8.06297 1.2172 7.88574C1.37454 7.72214 1.57263 7.61053 1.78776 7.56429C1.90012 7.54328 2.01417 7.53442 2.12819 7.53784L2.12439 7.56022ZM1.07456 1.79036H7.05972V1.2207C7.05877 1.20241 7.05877 1.18407 7.05972 1.16577C7.0717 0.859137 7.19121 0.568579 7.39445 0.351969C7.60777 0.126703 7.89539 0.000272877 8.19514 0L11.879 0H11.9361C12.2287 0.0156722 12.5045 0.151168 12.7064 0.378418C12.9082 0.605668 13.0205 0.907255 13.0202 1.2207V1.79036H19.1061H19.1803C19.3957 1.80921 19.5974 1.9109 19.7481 2.0766C19.8988 2.2423 19.9883 2.4608 20 2.69165C20 2.72827 20 2.75675 20 2.79338V4.7994C20 4.93915 19.9481 5.07318 19.8557 5.172C19.7634 5.27082 19.6381 5.32633 19.5074 5.32633H0.492586C0.362928 5.32634 0.238494 5.27167 0.146279 5.17416C0.0540643 5.07666 0.00150512 4.94419 3.28489e-06 4.8055V2.75269C-0.00195422 2.73171 -0.00195422 2.71059 3.28489e-06 2.68962C0.0130332 2.47538 0.0927983 2.27199 0.226559 2.11194C0.36032 1.95188 0.540361 1.8444 0.737927 1.80664C0.849499 1.79098 0.962118 1.78554 1.07456 1.79036ZM9.0814 12.5122C9.10436 12.2733 9.20934 12.0519 9.37604 11.891C9.54273 11.7301 9.7593 11.641 9.98384 11.641C10.2084 11.641 10.4249 11.7301 10.5916 11.891C10.7583 12.0519 10.8633 12.2733 10.8863 12.5122V20.0399C10.8633 20.2788 10.7583 20.5002 10.5916 20.6611C10.4249 20.822 10.2084 20.9111 9.98384 20.9111C9.7593 20.9111 9.54273 20.822 9.37604 20.6611C9.20934 20.5002 9.10436 20.2788 9.0814 20.0399V12.5122ZM13.5945 12.4715C13.6195 12.2276 13.7333 12.0041 13.9113 11.8495C14.0894 11.6949 14.3172 11.6216 14.5455 11.6455C14.6576 11.6444 14.7688 11.6671 14.8727 11.7122C14.9766 11.7573 15.0711 11.8239 15.1508 11.9083C15.2306 11.9926 15.2939 12.093 15.3372 12.2036C15.3805 12.3142 15.403 12.433 15.4032 12.5529L15.0228 20.0806C14.9984 20.3247 14.8847 20.5485 14.7065 20.7032C14.5284 20.858 14.3002 20.9311 14.0719 20.9066C13.9598 20.9076 13.8486 20.885 13.7447 20.8399C13.6408 20.7948 13.5462 20.7282 13.4665 20.6438C13.3868 20.5595 13.3234 20.4591 13.2801 20.3485C13.2368 20.2378 13.2144 20.1191 13.2142 19.9992L13.5945 12.4715ZM4.75466 12.5529C4.75466 12.4331 4.77685 12.3144 4.81995 12.2038C4.86305 12.0931 4.92621 11.9927 5.00579 11.9084C5.08536 11.824 5.17977 11.7573 5.28356 11.7122C5.38735 11.6671 5.49847 11.6444 5.6105 11.6455C5.83874 11.6216 6.06659 11.6949 6.24462 11.8495C6.42265 12.0041 6.53649 12.2276 6.56143 12.4715L6.94181 19.9992C6.94156 20.1191 6.91914 20.2378 6.87583 20.3485C6.83252 20.4591 6.76918 20.5595 6.68945 20.6438C6.60973 20.7282 6.51519 20.7948 6.41129 20.8399C6.3074 20.885 6.19619 20.9076 6.08407 20.9066C5.85573 20.9311 5.6276 20.858 5.44946 20.7032C5.27131 20.5485 5.1576 20.3247 5.13313 20.0806L4.75276 12.5529H4.75466Z" fill="#105F49"/>
</svg>
