<svg width="30" height="25" viewBox="0 0 30 25" fill="none" xmlns="http://www.w3.org/2000/svg">
<path d="M9.97866 10.5939C9.97866 11.1171 10.0177 11.7361 9.97866 12.247C9.96872 12.4566 9.93095 12.664 9.86636 12.8635C9.75762 13.2142 9.53272 13.5167 9.22916 13.7208C8.92993 13.9109 8.57905 14.0019 8.22576 13.9811C7.98963 13.9679 7.75639 13.9224 7.53242 13.846C7.40509 13.7992 7.28569 13.7329 7.17842 13.6495C6.11643 12.8144 5.01537 11.913 3.90699 11.0115C2.88406 10.169 1.85381 9.33387 0.703925 8.41768L0.638008 8.35136C0.395461 8.13802 0.20854 7.86815 0.0935847 7.56535C-0.0090847 7.2778 -0.0277234 6.96668 0.0398748 6.66881C0.097307 6.41951 0.206278 6.18517 0.359693 5.98105C0.50076 5.79684 0.664874 5.63173 0.847966 5.4898C2.84988 3.96691 4.84203 2.23278 6.81221 0.643569C7.26187 0.257242 7.82569 0.0310275 8.41619 2.49579e-05C8.64097 -0.00125237 8.86336 0.0465138 9.06803 0.140033L9.12418 0.167052C9.31453 0.266613 9.48113 0.406569 9.61246 0.577249C9.91402 0.992963 10.0648 1.50013 10.0397 2.01417V3.38968H16.1846C16.5037 3.39287 16.8089 3.52166 17.0348 3.74846C17.2606 3.97526 17.3893 4.28204 17.3931 4.60308V9.38054C17.3893 9.70158 17.2606 10.0084 17.0348 10.2352C16.8089 10.462 16.5037 10.5908 16.1846 10.5939H9.97866ZM20.02 14.4061C20.02 13.8829 19.9809 13.2639 20.02 12.753C20.0299 12.5434 20.0677 12.336 20.1323 12.1365C20.2414 11.786 20.4662 11.4836 20.7695 11.2792L20.8207 11.2473C21.1095 11.0802 21.4404 11.0017 21.7729 11.0213C22.0085 11.0322 22.2413 11.0777 22.4638 11.1564L22.6444 11.2326L22.8007 11.3382C23.8627 12.1733 24.9711 13.0797 26.0746 13.9836C27.0999 14.8261 28.1424 15.6711 29.2972 16.5823L29.3631 16.6388C29.6073 16.8561 29.7936 17.1313 29.9051 17.4396C30.0083 17.7261 30.0278 18.0364 29.9612 18.3337L29.9392 18.4098C29.8772 18.6304 29.7754 18.8377 29.639 19.0214C29.4979 19.2056 29.3338 19.3707 29.1507 19.5127C27.1439 21.0306 25.1468 22.7648 23.1938 24.354C22.7469 24.7421 22.1842 24.9694 21.5947 25C21.3702 25.0009 21.148 24.954 20.9428 24.8624L20.8842 24.833C20.6945 24.7336 20.528 24.5946 20.396 24.4252C20.0965 24.0078 19.9475 23.5 19.9736 22.9858V21.6152H13.814C13.4924 21.612 13.1851 21.4812 12.9588 21.2512C12.7325 21.0212 12.6056 20.7107 12.6056 20.3871V15.6219C12.6056 15.2983 12.7325 14.9878 12.9588 14.7578C13.1851 14.5279 13.4924 14.397 13.814 14.3938L20.02 14.4061ZM8.64568 12.0947V9.91846C8.64568 9.73997 8.71615 9.56878 8.8416 9.44257C8.96705 9.31635 9.1372 9.24544 9.31461 9.24544H16.0503V4.73818H9.35855C9.27082 4.73722 9.18414 4.71884 9.10348 4.68409C9.02282 4.64935 8.94978 4.59892 8.88853 4.53571C8.82729 4.4725 8.77906 4.39774 8.7466 4.31572C8.71414 4.23371 8.6981 4.14606 8.69939 4.05779V2.01417C8.71548 1.80379 8.66872 1.59338 8.56511 1.40993L8.51628 1.36817C8.48391 1.35426 8.44893 1.34756 8.41375 1.34852C8.12609 1.38383 7.85647 1.5083 7.64228 1.70468L1.67803 6.55091C1.58593 6.62124 1.5038 6.70388 1.43389 6.79654C1.39328 6.84816 1.36339 6.90746 1.346 6.97093C1.33121 7.0206 1.33121 7.07355 1.346 7.12322C1.38756 7.21878 1.45117 7.30298 1.53155 7.36885C2.57157 8.1917 3.6653 9.08824 4.7517 9.97496C5.79661 10.8076 6.83663 11.6698 7.99383 12.5811C8.08444 12.6122 8.17895 12.6304 8.27459 12.6351C8.34956 12.6439 8.4254 12.6293 8.49187 12.5933C8.5438 12.5547 8.58088 12.4991 8.59685 12.4361C8.62278 12.3567 8.63757 12.274 8.64079 12.1905V12.1021L8.64568 12.0947Z" fill="#105F49"/>
</svg>
