<svg width="20" height="20" viewBox="0 0 20 20" fill="none" xmlns="http://www.w3.org/2000/svg">
<path fill-rule="evenodd" clip-rule="evenodd" d="M6.67318 2H18.1576C18.6654 2 19.126 2.24113 19.4596 2.63035C19.7933 3.01958 20 3.5569 20 4.14928V15.8507C20 16.4431 19.7933 16.9804 19.4596 17.3696C19.126 17.7589 18.6654 18 18.1576 18H6.61947L6.59017 17.9981C4.89095 17.8842 3.47656 15.5128 2.10286 13.2116C1.49902 12.1996 0.90332 11.2009 0.330404 10.4718L0 10.0522L0.327148 9.62881C1.04167 8.70037 1.71875 7.58775 2.37142 6.51691C3.80046 4.16637 5.11882 2 6.67318 2ZM13.5075 6.57767C13.8688 6.14857 14.458 6.14667 14.821 6.57387C15.1839 6.99917 15.1855 7.69408 14.8242 8.12128L13.2373 9.99905L14.8258 11.8787C15.1855 12.304 15.179 12.9932 14.8145 13.4166C14.4499 13.8419 13.8639 13.84 13.5042 13.4147L11.9255 11.5484L10.3434 13.4185C9.9821 13.8476 9.3929 13.8495 9.02995 13.4223C8.66699 12.997 8.66536 12.304 9.02669 11.8749L10.6136 9.99715L9.02507 8.11748C8.66699 7.69218 8.67188 7.00297 9.03646 6.57957C9.40104 6.15427 9.98698 6.15616 10.3467 6.58146L11.9255 8.44785L13.5075 6.57767Z" fill="white"/>
</svg>
