<svg width="24" height="26" viewBox="0 0 24 26" fill="none" xmlns="http://www.w3.org/2000/svg">
<path d="M21.7505 26H2.2495C1.65354 25.9978 1.0826 25.7465 0.661194 25.301C0.239787 24.8554 0.0021096 24.2518 0 23.6217L0 4.77132C0.0021096 4.14126 0.239787 3.53763 0.661194 3.09211C1.0826 2.64658 1.65354 2.3953 2.2495 2.39307H4.32488V5.31934C4.32673 5.71062 4.41168 6.09647 4.57344 6.44841C4.73521 6.80034 4.96966 7.10938 5.25951 7.3527C5.77793 7.79641 6.42472 8.03851 7.09173 8.03851C7.75874 8.03851 8.40553 7.79641 8.92395 7.3527C9.21379 7.10938 9.44825 6.80034 9.61001 6.44841C9.77178 6.09647 9.85672 5.71062 9.85857 5.31934V2.39307H14.0494V5.31934C14.0512 5.71062 14.1362 6.09647 14.2979 6.44841C14.4597 6.80034 14.6941 7.10938 14.984 7.3527C15.5024 7.79641 16.1492 8.03851 16.8162 8.03851C17.4832 8.03851 18.13 7.79641 18.6484 7.3527C18.9383 7.10938 19.1727 6.80034 19.3345 6.44841C19.4963 6.09647 19.5812 5.71062 19.5831 5.31934V2.39307H21.7505C22.3461 2.3964 22.9165 2.64804 23.3377 3.09333C23.7588 3.53861 23.9968 4.1416 24 4.77132V23.6217C23.9984 24.252 23.7609 24.8559 23.3394 25.3016C22.9179 25.7472 22.3466 25.9983 21.7505 26ZM16.7272 12.0119H19.9493C20.0564 12.0124 20.1592 12.0567 20.2361 12.1356C20.313 12.2145 20.358 12.3218 20.3616 12.4351V15.2703C20.358 15.3836 20.313 15.4909 20.2361 15.5698C20.1592 15.6487 20.0564 15.693 19.9493 15.6935H16.7272C16.622 15.6903 16.5219 15.6447 16.4475 15.566C16.373 15.4874 16.3299 15.3816 16.3269 15.2703V12.4456C16.3294 12.3342 16.3724 12.2282 16.4469 12.1494C16.5215 12.0706 16.6218 12.0251 16.7272 12.0225V12.0119ZM10.4209 12.0119H13.6451C13.7503 12.0151 13.8504 12.0607 13.9248 12.1394C13.9992 12.218 14.0423 12.3238 14.0454 12.4351V15.2703C14.0419 15.3814 13.9986 15.4869 13.9243 15.5655C13.8499 15.6441 13.7501 15.6898 13.6451 15.6935H10.4209C10.3157 15.6903 10.2157 15.6447 10.1413 15.566C10.0668 15.4874 10.0237 15.3816 10.0207 15.2703V12.4456C10.0237 12.3344 10.0668 12.2286 10.1413 12.1499C10.2157 12.0713 10.3157 12.0257 10.4209 12.0225V12.0119ZM4.0487 12.0119H7.27285C7.37805 12.0151 7.47811 12.0607 7.55253 12.1394C7.62695 12.218 7.67009 12.3238 7.67312 12.4351V15.2703C7.66962 15.3814 7.62633 15.4869 7.55201 15.5655C7.47769 15.6441 7.3779 15.6898 7.27285 15.6935H4.0487C3.94175 15.693 3.83918 15.6486 3.76262 15.5696C3.68607 15.4907 3.64154 15.3834 3.63843 15.2703V12.4456C3.64104 12.3324 3.68541 12.2248 3.76207 12.1457C3.83873 12.0667 3.9416 12.0224 4.0487 12.0225V12.0119ZM16.7272 18.04H19.9493C20.0564 18.0405 20.1592 18.0849 20.2361 18.1638C20.313 18.2427 20.358 18.35 20.3616 18.4632V21.2985C20.361 21.4137 20.3174 21.5241 20.2401 21.6053C20.1629 21.6866 20.0583 21.7323 19.9493 21.7323H16.7272C16.6203 21.729 16.5187 21.6819 16.4441 21.601C16.3694 21.52 16.3274 21.4116 16.3269 21.2985V18.4738C16.3299 18.3626 16.373 18.2568 16.4475 18.1781C16.5219 18.0994 16.622 18.0538 16.7272 18.0506V18.04ZM10.4209 18.04H13.6451C13.7503 18.0432 13.8504 18.0888 13.9248 18.1675C13.9992 18.2462 14.0423 18.352 14.0454 18.4632V21.2985C14.0449 21.4116 14.0029 21.52 13.9282 21.601C13.8535 21.6819 13.752 21.729 13.6451 21.7323H10.4209C10.314 21.729 10.2125 21.6819 10.1379 21.601C10.0632 21.52 10.0212 21.4116 10.0207 21.2985V18.4738C10.0242 18.3627 10.0675 18.2572 10.1418 18.1787C10.2161 18.1001 10.3159 18.0543 10.4209 18.0506V18.04ZM4.0487 18.04H7.27285C7.37805 18.0432 7.47811 18.0888 7.55253 18.1675C7.62695 18.2462 7.67009 18.352 7.67312 18.4632V21.2985C7.67264 21.4116 7.63063 21.52 7.55594 21.601C7.48126 21.6819 7.37975 21.729 7.27285 21.7323H4.0487C3.94005 21.7317 3.836 21.6858 3.75917 21.6046C3.68235 21.5234 3.63895 21.4134 3.63843 21.2985V18.4738C3.64154 18.3608 3.68607 18.2535 3.76262 18.1745C3.83918 18.0955 3.94175 18.0511 4.0487 18.0506V18.04ZM15.7305 0.941569C15.7305 0.423177 16.2108 0 16.8112 0C17.4116 0 17.8979 0.423177 17.8979 0.941569V5.31934C17.8979 5.83984 17.4136 6.26091 16.8112 6.26091C16.2088 6.26091 15.7265 5.83773 15.7265 5.31934V0.941569H15.7305ZM6.004 0.941569C6.004 0.423177 6.49233 0 7.09273 0C7.69313 0 8.17745 0.423177 8.17745 0.941569V5.31934C8.17745 5.83984 7.69313 6.26091 7.09273 6.26091C6.49233 6.26091 6.004 5.83984 6.004 5.31934V0.941569ZM0.72048 9.28027V23.3678C0.722063 23.8634 0.908966 24.3382 1.24041 24.6886C1.57185 25.039 2.02093 25.2366 2.48966 25.2383H21.5023C21.9714 25.2372 22.421 25.0398 22.7529 24.6893C23.0848 24.3389 23.2719 23.8638 23.2735 23.3678V9.28027H0.72048Z" fill="black"/>
</svg>
