<svg width="20" height="25" viewBox="0 0 20 25" fill="none" xmlns="http://www.w3.org/2000/svg">
<path fill-rule="evenodd" clip-rule="evenodd" d="M12.9672 10.4757C13.19 10.3178 13.4289 10.1875 13.6792 10.0871C14.1532 9.9999 14.6338 9.96039 15.1147 9.96913C15.8077 9.95082 16.4988 10.0159 16.5674 10.1726C16.6292 10.3048 16.6562 10.4525 16.6454 10.5998C16.6315 10.7442 16.5873 10.8833 16.516 11.0067C16.2977 11.3299 16.0181 11.6003 15.6954 11.8002C15.3794 12.0321 15.09 12.2457 15.1376 12.4105C15.1376 12.4248 15.1719 12.4512 15.2175 12.4919C15.3053 12.5652 15.3968 12.6331 15.4917 12.6954C15.8749 12.937 16.22 13.2419 16.5141 13.5987C16.8016 13.9639 17.0446 14.3666 17.2375 14.797C17.3023 14.9333 17.3651 15.0757 17.4279 15.2222C17.4907 15.3687 17.5536 15.5355 17.6183 15.6963L17.6297 15.7471C17.6481 15.9171 17.6959 16.082 17.7706 16.2334C17.7992 16.2842 17.8277 16.3086 17.8544 16.3086H18.1895H18.3208C18.6331 16.2842 18.8082 16.272 18.9891 16.7725C19.118 17.1941 19.1691 17.6383 19.1395 18.0807C19.1265 18.5594 19.0463 19.0333 18.9015 19.4865C18.8636 19.7078 18.7553 19.9083 18.595 20.0542C18.4178 20.2025 18.2012 20.2873 17.9762 20.2963H17.5955C17.4374 20.2963 17.2985 20.2963 17.1957 20.2963C17.0928 20.2963 17.0776 20.278 17.0643 20.2861C17.051 20.2942 17.0643 20.2963 17.0433 20.3329C16.9288 20.5075 16.8015 20.6722 16.6626 20.8252C16.5065 20.9982 16.3237 21.1894 16.1485 21.3664C15.9734 21.5434 15.8249 21.6838 15.6916 21.8038L15.6097 21.8771C15.5264 21.9405 15.4498 22.0135 15.3813 22.0948C15.4078 22.2277 15.4507 22.3563 15.5088 22.4773C15.5469 22.5749 15.5698 22.6319 15.5774 22.6543C15.6669 22.8882 15.7563 23.1141 15.8363 23.3114C15.9715 23.6451 16.1219 23.9991 16.1695 24.1252V24.1374C16.2799 24.4365 16.2551 24.6644 16.1009 24.8271C16.0156 24.9012 15.9163 24.9546 15.8098 24.9838C15.7033 25.0129 15.5922 25.0171 15.4841 24.996H14.1514C13.9694 25.01 13.7877 24.9653 13.6297 24.8678C13.4601 24.7594 13.3146 24.613 13.2033 24.4385L13.1918 24.4161C13.1359 24.3077 13.085 24.1964 13.0395 24.0825C12.912 23.7753 12.7521 23.3948 12.6226 23.4498C11.7625 23.8233 10.8486 24.0353 9.92102 24.0764C8.87654 24.0958 7.83627 23.9301 6.84248 23.5861C6.51312 23.5372 6.44648 23.6858 6.33987 23.9218C6.3094 23.9889 6.27894 24.0601 6.23515 24.1496C6.2085 24.2066 6.19898 24.231 6.18946 24.2514C6.03715 24.5993 5.89056 24.9349 5.42792 25.0346H5.37842L3.68208 25.0204H3.66495C3.56868 25.0153 3.47454 24.9883 3.38889 24.941C3.2966 24.8913 3.22084 24.8125 3.17185 24.7152C3.02145 24.4202 3.12235 24.1985 3.22516 23.9726L3.26514 23.8851L3.86105 22.4915L3.87247 22.4671C3.92719 22.385 3.95283 22.2847 3.94482 22.1843C3.91778 22.1013 3.86635 22.03 3.79822 21.9808C3.68018 21.8913 3.56405 21.7977 3.45362 21.7042C3.3432 21.6106 3.23087 21.5007 3.12425 21.401C2.76369 21.047 2.44411 20.6481 2.17233 20.2129C1.90105 19.7734 1.68291 19.2989 1.52311 18.8009C1.39618 18.4281 1.30931 18.0411 1.26419 17.6474C1.26419 17.5578 1.24705 17.4663 1.24134 17.3747C0.96834 17.2322 0.72693 17.0291 0.533228 16.779C0.339526 16.5288 0.197989 16.2374 0.118067 15.9241C-0.0723187 15.2466 -0.0475686 14.4044 0.234202 13.4664L0.710166 13.6292C0.473788 14.3147 0.434669 15.0601 0.597838 15.7695C0.702176 16.1725 0.934373 16.5242 1.25467 16.7644C1.25467 16.685 1.2699 16.6037 1.27942 16.5243C1.40375 15.6621 1.70687 14.8404 2.16662 14.1195C2.76962 13.1603 3.575 12.3659 4.51788 11.8002L4.55595 11.8287L7.54691 13.8347C7.01879 13.9208 6.49889 14.057 5.99336 14.2416C5.81746 14.3095 5.67364 14.4487 5.593 14.6291C5.51235 14.8094 5.50135 15.0165 5.56237 15.2054C5.62339 15.3944 5.75153 15.55 5.91911 15.6389C6.08668 15.7277 6.28022 15.7424 6.4579 15.68C7.27423 15.3875 8.13105 15.2451 8.99194 15.2588C9.88156 15.2687 10.7649 15.4189 11.6135 15.7044C11.7951 15.7632 11.991 15.7426 12.1583 15.647C12.3256 15.5514 12.4505 15.3887 12.5055 15.1948C12.5605 15.0008 12.5412 14.7914 12.4518 14.6126C12.3623 14.4339 12.2101 14.3004 12.0286 14.2416C11.647 14.1146 11.2593 14.0093 10.8672 13.9262L12.9615 10.4676L12.9672 10.4757ZM19.8325 0.937964H18.1419C18.0979 0.93848 18.0559 0.957231 18.0246 0.990258C17.9933 1.02328 17.9753 1.068 17.9743 1.11497V5.50339C17.9748 5.55052 17.9927 5.59554 18.0241 5.62868C18.0554 5.66181 18.0978 5.6804 18.1419 5.68039H19.8325C19.8766 5.6804 19.9189 5.66181 19.9503 5.62868C19.9817 5.59554 19.9995 5.55052 20 5.50339V1.11497C19.9995 1.06784 19.9817 1.02282 19.9503 0.989681C19.9189 0.956544 19.8766 0.937961 19.8325 0.937964ZM17.5479 1.72125C17.5527 1.6457 17.534 1.57056 17.4946 1.50763C17.386 1.35097 17.1138 1.39776 16.952 1.39776C16.7777 1.4031 16.6034 1.38809 16.4322 1.353C16.1802 1.28302 15.9328 1.19535 15.6916 1.09055C14.772 0.738582 13.9896 0.52089 13.0262 0.0732994C12.9292 0.0254905 12.8237 0.000732422 12.7168 0.000732422C12.61 0.000732422 12.5045 0.0254905 12.4075 0.0732994C11.5114 0.422656 10.6462 0.856352 9.82202 1.36928C9.74166 1.41558 9.6674 1.47304 9.60117 1.54018C9.53569 1.61075 9.47993 1.69089 9.43554 1.77821C8.90436 2.59202 8.44934 3.43837 8.01336 4.27455C7.86676 4.56752 7.80583 4.84625 7.90674 5.02121C8.31607 5.74143 9.04905 4.71807 9.84867 4.03651C10.1838 3.74965 10.6388 3.49534 11.0291 3.2044C11.5317 2.98061 11.7659 2.76698 12.3046 2.64695C13.1309 2.56964 13.1995 3.83713 12.1143 3.88393C11.3775 3.91444 9.85819 4.62856 9.43173 5.28773C9.03382 5.89809 9.25277 6.50844 10.0638 6.48199L10.7416 6.34771C11.8192 6.13002 11.7887 6.0873 12.9139 6.31109C13.5174 6.42909 14.1495 6.55523 14.7701 6.43113C15.1509 6.35585 15.3413 6.19309 15.6859 5.91843C15.8515 5.76281 16.0321 5.62641 16.2247 5.51153C16.3787 5.41518 16.5438 5.34064 16.7159 5.28977C16.9748 5.22467 17.3384 5.31825 17.4888 5.08632C17.53 5.01472 17.5518 4.93231 17.5517 4.84828V1.72125H17.5479ZM9.11759 7.38938C8.90463 7.53296 8.73944 7.74464 8.6455 7.9943C8.55157 8.24397 8.53368 8.51892 8.59436 8.78008C8.65505 9.04124 8.79123 9.27531 8.98354 9.44902C9.17586 9.62272 9.41452 9.72723 9.6656 9.74767C9.91668 9.76812 10.1674 9.70347 10.3821 9.56291C10.5969 9.42235 10.7647 9.21303 10.8617 8.96471C10.9587 8.7164 10.98 8.44172 10.9225 8.17973C10.8651 7.91773 10.7318 7.68176 10.5417 7.50534C10.4236 7.53179 10.3189 7.55824 10.2523 7.57045C10.1969 7.58067 10.1409 7.58679 10.0848 7.58876C9.75189 7.60305 9.42055 7.53335 9.11759 7.38531V7.38938ZM7.85533 6.39247L5.15567 10.8338L9.60879 13.8449L13.447 7.52772C13.1937 7.4911 12.9577 7.44431 12.7254 7.39955L12.5769 7.36903L9.81821 11.8449C9.64396 11.727 9.43302 11.6877 9.2317 11.7358C9.03039 11.7838 8.85514 11.9153 8.74444 12.1013L6.98527 10.9091C7.09447 10.7232 7.13053 10.4988 7.0856 10.2846C7.04067 10.0705 6.91839 9.88394 6.74539 9.76568L8.51788 6.89092C8.42076 6.75508 8.34371 6.60413 8.28941 6.44333C8.14363 6.46055 7.99609 6.44672 7.85533 6.40264V6.39247ZM14.7302 15.3443C14.9184 15.3434 15.1011 15.4124 15.2471 15.5394C15.393 15.6664 15.4932 15.8436 15.5305 16.0408C15.5679 16.2379 15.54 16.4428 15.4517 16.6205C15.3634 16.7981 15.2202 16.9376 15.0464 17.0149C14.8726 17.0923 14.6791 17.1028 14.4989 17.0447C14.3187 16.9866 14.1629 16.8635 14.0582 16.6963C13.9535 16.5292 13.9063 16.3284 13.9247 16.1282C13.943 15.928 14.0259 15.7408 14.159 15.5986C14.2334 15.5175 14.3223 15.4532 14.4204 15.4095C14.5186 15.3659 14.6239 15.3437 14.7302 15.3443Z" fill="#105F49"/>
</svg>
