<svg width="26" height="20" viewBox="0 0 26 20" fill="none" xmlns="http://www.w3.org/2000/svg">
<g clip-path="url(#clip0_657_1136)">
<path d="M4.14929 8.70603C4.20219 8.67803 4.26355 8.64444 4.33337 8.60712C4.52804 8.50261 4.77136 8.37198 5.02315 8.25254C5.58386 7.98941 6.16573 7.81212 6.36251 8.14057C6.58468 8.50821 6.77511 9.40585 6.9211 10.4155C7.13058 11.8618 7.2533 13.5507 7.2533 14.2244C7.25118 15.1127 7.19194 15.9786 7.08403 16.8277C6.98246 17.619 6.8407 18.399 6.66085 19.1679L19.2715 19.1548C19.1192 18.3412 18.9943 17.5238 18.9034 16.7027C18.8081 15.8274 18.751 14.9466 18.7426 14.0601C18.7341 13.1177 18.7785 12.1678 18.8886 11.2105C18.9986 10.2512 19.1721 9.28268 19.4196 8.30106C19.4471 8.18909 19.5254 8.09765 19.627 8.03979C19.7286 7.98194 19.8555 7.95955 19.9825 7.98381C19.9952 7.98567 20.0121 7.99127 20.0311 7.99687C20.0417 8.0006 20.0523 8.00434 20.0629 8.00807C20.0692 8.00994 20.0734 8.0118 20.0798 8.01367L21.8339 8.72655L24.8469 5.2349L17.674 1.02664C17.3101 1.63875 16.9102 2.15942 16.4891 2.59237C16.0173 3.07385 15.5158 3.44336 14.9932 3.70276C14.7033 3.84646 14.405 3.95656 14.1045 4.03308C13.802 4.10959 13.493 4.15251 13.1799 4.15998C12.8689 4.16744 12.5599 4.14131 12.251 4.0816C11.9421 4.02188 11.6353 3.92857 11.3306 3.80167C10.7403 3.55533 10.1584 3.18396 9.60193 2.68568C9.09623 2.2322 8.60746 1.67607 8.15043 1.01544L1.14897 5.26476L4.14929 8.70603ZM5.62618 8.95796L4.24239 9.60926C4.23816 9.61113 4.23393 9.613 4.2297 9.61486C4.13237 9.65778 4.02234 9.66898 3.92078 9.64845C3.81498 9.62793 3.71765 9.57567 3.64571 9.49543C3.6436 9.49169 3.64148 9.48983 3.63936 9.4861L0.118531 5.44392C0.116415 5.44205 0.110067 5.43459 0.101604 5.42526C0.0952563 5.41779 0.0889086 5.41033 0.0846769 5.40473L0.0804451 5.39913C0.0106209 5.30582 -0.0126539 5.19571 0.00850498 5.09307C0.0296638 4.98857 0.0973722 4.89153 0.205282 4.82621L8.01502 0.0860748C8.03406 0.0730115 8.05099 0.0636805 8.07003 0.0543495C8.17159 0.0039623 8.28585 -0.00910106 8.39376 0.00956088C8.50167 0.0282228 8.60112 0.0804763 8.67306 0.162589C8.68787 0.179385 8.70268 0.198046 8.71326 0.214842C9.17029 0.931461 9.65694 1.52491 10.1605 1.99706C10.6726 2.47667 11.2015 2.82751 11.7347 3.04959C11.9738 3.1485 12.2129 3.22128 12.4478 3.26794C12.6848 3.31459 12.9196 3.33512 13.1545 3.32765C13.3872 3.32206 13.6179 3.28846 13.8485 3.23061C14.077 3.17276 14.3055 3.08692 14.5319 2.97494C15.0017 2.74167 15.4566 2.39642 15.8861 1.93361C16.3072 1.48199 16.7028 0.918397 17.0647 0.244701C17.0668 0.242835 17.0668 0.239103 17.0689 0.237237C17.0731 0.229772 17.0774 0.222307 17.0816 0.216708C17.0837 0.205511 17.09 0.19618 17.0943 0.186849C17.1662 0.0916734 17.2762 0.030089 17.3926 0.00956088C17.5111 -0.0109673 17.6381 0.00769469 17.7481 0.0711453L25.7863 4.78515C25.7885 4.78702 25.7927 4.78888 25.7948 4.79075L25.7969 4.79262L25.8012 4.79448L25.8096 4.80008L25.8117 4.80195C25.9154 4.871 25.9768 4.97177 25.9916 5.07814C26.0085 5.18452 25.9789 5.29462 25.8985 5.38607L22.3544 9.48983L22.3523 9.49169C22.2867 9.57007 22.1936 9.62419 22.092 9.64659C21.9904 9.67085 21.8783 9.66338 21.7746 9.62233L20.2131 8.98782C20.0248 9.82014 19.8894 10.6431 19.8026 11.4568C19.7095 12.3302 19.6714 13.1942 19.6799 14.0527C19.6884 14.9634 19.7497 15.8722 19.8555 16.7792C19.9613 17.6843 20.1094 18.5894 20.2914 19.4982C20.2935 19.5038 20.2935 19.5113 20.2935 19.5169C20.2935 19.5225 20.2956 19.5281 20.2956 19.5337V19.5374C20.2956 19.5486 20.2977 19.5579 20.2977 19.5691C20.2977 19.683 20.2448 19.7875 20.1602 19.864C20.0734 19.9387 19.9571 19.9853 19.828 19.9853L6.09379 20.0002C6.07475 20.0002 6.05359 20.0002 6.03243 19.9984C6.01127 19.9965 5.99011 19.9946 5.96895 19.989C5.842 19.9629 5.73832 19.8957 5.67273 19.8043C5.60714 19.7147 5.58175 19.6027 5.61137 19.4908C5.82719 18.6416 5.99858 17.7813 6.11918 16.9024C6.23767 16.0234 6.30326 15.1313 6.30538 14.2225C6.3075 13.3622 6.25248 12.4813 6.13399 11.5725C6.02608 10.7252 5.85893 9.8556 5.62618 8.95796Z" fill="#333333"/>
</g>
<defs>
<clipPath id="clip0_657_1136">
<rect width="26" height="20" fill="white"/>
</clipPath>
</defs>
</svg>
