<svg width="21" height="26" viewBox="0 0 21 26" fill="none" xmlns="http://www.w3.org/2000/svg">
<path fill-rule="evenodd" clip-rule="evenodd" d="M12.9721 10.475C13.1949 10.3171 13.4338 10.1867 13.6841 10.0864C14.1581 9.99917 14.6387 9.95966 15.1196 9.9684C15.8126 9.95009 16.5037 10.0152 16.5723 10.1718C16.6341 10.304 16.6611 10.4517 16.6503 10.5991C16.6364 10.7434 16.5922 10.8825 16.5209 11.006C16.3025 11.3292 16.023 11.5995 15.7003 11.7995C15.3843 12.0314 15.0949 12.245 15.1425 12.4098C15.1425 12.424 15.1767 12.4505 15.2224 12.4912C15.3102 12.5645 15.4017 12.6324 15.4966 12.6946C15.8798 12.9363 16.2248 13.2411 16.519 13.598C16.8064 13.9632 17.0495 14.3658 17.2424 14.7963C17.3071 14.9326 17.37 15.075 17.4328 15.2215C17.4956 15.368 17.5585 15.5348 17.6232 15.6955L17.6346 15.7464C17.653 15.9164 17.7008 16.0813 17.7755 16.2326C17.8041 16.2835 17.8326 16.3079 17.8593 16.3079H18.1943H18.3257C18.6379 16.2835 18.8131 16.2713 18.994 16.7718C19.1229 17.1933 19.1739 17.6376 19.1444 18.08C19.1314 18.5587 19.0512 19.0326 18.9064 19.4858C18.8684 19.7071 18.7602 19.9076 18.5999 20.0534C18.4226 20.2018 18.2061 20.2865 17.9811 20.2955H17.6003C17.4423 20.2955 17.3033 20.2955 17.2005 20.2955C17.0977 20.2955 17.0825 20.2772 17.0692 20.2854C17.0558 20.2935 17.0692 20.2955 17.0482 20.3322C16.9337 20.5068 16.8064 20.6714 16.6675 20.8245C16.5113 20.9974 16.3286 21.1887 16.1534 21.3657C15.9783 21.5427 15.8298 21.6831 15.6965 21.8031L15.6146 21.8764C15.5313 21.9398 15.4547 22.0128 15.3862 22.094C15.4127 22.227 15.4556 22.3556 15.5137 22.4765C15.5518 22.5742 15.5746 22.6312 15.5823 22.6535C15.6717 22.8875 15.7612 23.1133 15.8412 23.3107C15.9764 23.6443 16.1268 23.9983 16.1744 24.1245V24.1367C16.2848 24.4358 16.26 24.6636 16.1058 24.8264C16.0205 24.9004 15.9212 24.9539 15.8147 24.983C15.7082 25.0122 15.5971 25.0163 15.489 24.9953H14.1563C13.9743 25.0092 13.7926 24.9646 13.6346 24.8671C13.465 24.7587 13.3195 24.6122 13.2081 24.4378L13.1967 24.4154C13.1407 24.307 13.0899 24.1956 13.0444 24.0818C12.9169 23.7745 12.7569 23.3941 12.6275 23.449C11.7674 23.8225 10.8535 24.0345 9.9259 24.0757C8.88142 24.0951 7.84115 23.9294 6.84737 23.5853C6.518 23.5365 6.45136 23.685 6.34475 23.921C6.31429 23.9882 6.28383 24.0594 6.24004 24.1489C6.21338 24.2059 6.20386 24.2303 6.19434 24.2506C6.04204 24.5985 5.89544 24.9342 5.4328 25.0339H5.3833L3.68697 25.0197H3.66983C3.57356 25.0146 3.47942 24.9876 3.39377 24.9403C3.30149 24.8906 3.22573 24.8117 3.17673 24.7145C3.02633 24.4195 3.12723 24.1977 3.23004 23.9719L3.27002 23.8844L3.86593 22.4908L3.87735 22.4664C3.93208 22.3842 3.95772 22.284 3.9497 22.1836C3.92266 22.1006 3.87124 22.0292 3.8031 21.9801C3.68506 21.8906 3.56893 21.797 3.4585 21.7034C3.34808 21.6098 3.23575 21.5 3.12914 21.4003C2.76858 21.0463 2.44899 20.6474 2.17721 20.2121C1.90593 19.7726 1.68779 19.2982 1.52799 18.8002C1.40106 18.4274 1.3142 18.0404 1.26907 17.6466C1.26907 17.5571 1.25194 17.4655 1.24622 17.374C0.973223 17.2315 0.731813 17.0284 0.538111 16.7782C0.344409 16.5281 0.202872 16.2366 0.12295 15.9234C-0.0674359 15.2459 -0.0426858 14.4036 0.239085 13.4657L0.715049 13.6285C0.478671 14.314 0.439552 15.0593 0.602721 15.7688C0.707059 16.1718 0.939256 16.5235 1.25955 16.7636C1.25955 16.6843 1.27478 16.6029 1.2843 16.5236C1.40863 15.6613 1.71176 14.8397 2.1715 14.1188C2.77451 13.1596 3.57988 12.3652 4.52276 11.7995L4.56084 11.8279L7.55179 13.834C7.02367 13.9201 6.50377 14.0562 5.99825 14.2409C5.82234 14.3088 5.67853 14.448 5.59788 14.6284C5.51723 14.8087 5.50623 15.0157 5.56725 15.2047C5.62827 15.3936 5.75642 15.5493 5.92399 15.6381C6.09156 15.7269 6.2851 15.7417 6.46279 15.6793C7.27911 15.3868 8.13594 15.2444 8.99682 15.2581C9.88644 15.268 10.7698 15.4181 11.6184 15.7037C11.8 15.7625 11.9959 15.7418 12.1632 15.6463C12.3305 15.5507 12.4553 15.388 12.5104 15.194C12.5654 15 12.5461 14.7906 12.4567 14.6119C12.3672 14.4331 12.215 14.2997 12.0335 14.2409C11.6519 14.1138 11.2642 14.0086 10.8721 13.9255L12.9664 10.4669L12.9721 10.475ZM19.8374 0.937231H18.1467C18.1028 0.937748 18.0607 0.956499 18.0295 0.989525C17.9982 1.02255 17.9802 1.06727 17.9792 1.11423V5.50266C17.9797 5.54979 17.9976 5.59481 18.0289 5.62794C18.0603 5.66108 18.1026 5.67967 18.1467 5.67966H19.8374C19.8815 5.67967 19.9238 5.66108 19.9552 5.62794C19.9865 5.59481 20.0044 5.54979 20.0049 5.50266V1.11423C20.0044 1.0671 19.9865 1.02209 19.9552 0.988949C19.9238 0.955812 19.8815 0.937228 19.8374 0.937231ZM17.5527 1.72052C17.5576 1.64496 17.5389 1.56982 17.4994 1.50689C17.3909 1.35024 17.1187 1.39703 16.9568 1.39703C16.7826 1.40237 16.6083 1.38736 16.4371 1.35227C16.1851 1.28229 15.9377 1.19461 15.6965 1.08982C14.7769 0.73785 13.9944 0.520158 13.0311 0.072567C12.9341 0.0247581 12.8285 0 12.7217 0C12.6149 0 12.5093 0.0247581 12.4123 0.072567C11.5163 0.421923 10.6511 0.85562 9.8269 1.36855C9.74655 1.41484 9.67229 1.47231 9.60605 1.53944C9.54058 1.61001 9.48481 1.69016 9.44042 1.77748C8.90924 2.59128 8.45422 3.43764 8.01824 4.27382C7.87164 4.56679 7.81072 4.84552 7.91162 5.02048C8.32095 5.7407 9.05394 4.71734 9.85355 4.03578C10.1886 3.74892 10.6437 3.4946 11.0339 3.20367C11.5366 2.97987 11.7707 2.76625 12.3095 2.64622C13.1358 2.5689 13.2043 3.8364 12.1191 3.88319C11.3824 3.91371 9.86307 4.62782 9.43661 5.287C9.0387 5.89735 9.25765 6.50771 10.0687 6.48126L10.7465 6.34698C11.824 6.12929 11.7936 6.08656 12.9188 6.31036C13.5223 6.42836 14.1544 6.5545 14.775 6.43039C15.1558 6.35512 15.3462 6.19236 15.6908 5.9177C15.8564 5.76208 16.037 5.62568 16.2296 5.5108C16.3836 5.41445 16.5487 5.3399 16.7208 5.28904C16.9797 5.22393 17.3433 5.31752 17.4937 5.08559C17.5349 5.01399 17.5566 4.93158 17.5566 4.84755V1.72052H17.5527ZM9.12247 7.38865C8.90951 7.53223 8.74432 7.7439 8.65039 7.99357C8.55645 8.24324 8.53856 8.51819 8.59925 8.77935C8.65993 9.04051 8.79611 9.27458 8.98843 9.44828C9.18074 9.62199 9.4194 9.7265 9.67048 9.74694C9.92156 9.76739 10.1723 9.70274 10.387 9.56217C10.6017 9.42161 10.7695 9.2123 10.8665 8.96398C10.9636 8.71567 10.9849 8.44099 10.9274 8.17899C10.87 7.917 10.7367 7.68103 10.5466 7.50461C10.4285 7.53106 10.3238 7.55751 10.2572 7.56972C10.2018 7.57994 10.1458 7.58606 10.0896 7.58803C9.75677 7.60232 9.42543 7.53262 9.12247 7.38458V7.38865ZM7.86022 6.39174L5.16055 10.8331L9.61367 13.8441L13.4518 7.52699C13.1986 7.49037 12.9626 7.44358 12.7303 7.39882L12.5818 7.3683L9.82309 11.8442C9.64884 11.7262 9.4379 11.687 9.23659 11.735C9.03527 11.7831 8.86002 11.9146 8.74932 12.1006L6.99016 10.9083C7.09935 10.7225 7.13541 10.498 7.09048 10.2839C7.04555 10.0697 6.92327 9.88321 6.75027 9.76495L8.52276 6.89019C8.42565 6.75435 8.3486 6.6034 8.2943 6.4426C8.14851 6.45982 8.00097 6.44599 7.86022 6.40191V6.39174ZM14.735 15.3436C14.9233 15.3427 15.106 15.4116 15.2519 15.5386C15.3979 15.6657 15.4981 15.8429 15.5354 16.04C15.5727 16.2372 15.5449 16.4421 15.4566 16.6198C15.3683 16.7974 15.225 16.9368 15.0513 17.0142C14.8775 17.0916 14.684 17.1021 14.5038 17.044C14.3236 16.9859 14.1678 16.8628 14.0631 16.6956C13.9584 16.5285 13.9112 16.3277 13.9295 16.1275C13.9479 15.9273 14.0308 15.7401 14.1639 15.5979C14.2383 15.5168 14.3272 15.4525 14.4253 15.4088C14.5234 15.3651 14.6288 15.3429 14.735 15.3436Z" fill="#5C5C5C"/>
</svg>
