<svg width="30" height="30" viewBox="0 0 30 30" fill="none" xmlns="http://www.w3.org/2000/svg">
<path d="M20.7349 1.1377C18.9673 0.405273 17.0288 0 15 0C10.8594 0 7.10693 1.67969 4.39453 4.39453C3.0127 5.77393 1.89697 7.42676 1.1377 9.26514C0.405273 11.0327 0 12.9712 0 15C0 19.1406 1.67969 22.8931 4.39453 25.6055C5.77637 26.9873 7.4292 28.1006 9.26514 28.8623C11.0327 29.5947 12.9712 30 15 30C17.0288 30 18.9673 29.5947 20.7349 28.8623C22.5732 28.1006 24.2236 26.9873 25.6055 25.6055C26.9873 24.2236 28.1006 22.5708 28.8623 20.7349C29.5947 18.9673 30 17.0288 30 15C30 12.9712 29.5947 11.0327 28.8623 9.26514C28.1006 7.42676 26.9873 5.77637 25.6055 4.39453C24.2236 3.0127 22.5732 1.89697 20.7349 1.1377ZM16.0767 11.5063C16.6821 10.8911 16.6748 9.8999 16.0571 9.29688C15.4395 8.69385 14.4507 8.69873 13.8477 9.31641L9.28955 13.9478C8.69141 14.5581 8.69141 15.5322 9.28955 16.1401L13.7622 20.686C14.3677 21.3013 15.3564 21.3086 15.9717 20.7056C16.5869 20.1001 16.5942 19.1113 15.9912 18.4961L14.104 16.5796L19.4751 16.5479C20.3394 16.5405 21.0327 15.835 21.0254 14.9707C21.0181 14.1064 20.3125 13.4131 19.4482 13.4204L14.1675 13.4521L16.0767 11.5063ZM19.5361 4.04053C20.9839 4.64111 22.29 5.52246 23.3838 6.61621C24.4775 7.70996 25.3589 9.01611 25.9595 10.4639C26.5381 11.8579 26.8555 13.3911 26.8555 15C26.8555 16.6089 26.5356 18.1396 25.9595 19.5361C25.3589 20.9839 24.4775 22.29 23.3838 23.3838C22.29 24.4775 20.9839 25.3589 19.5361 25.9595C18.1396 26.5356 16.6089 26.8555 15 26.8555C13.3911 26.8555 11.8604 26.5356 10.4639 25.9595C9.01611 25.3589 7.70996 24.4775 6.61621 23.3838C5.52246 22.29 4.64111 20.9863 4.04053 19.5361C3.46191 18.1421 3.14453 16.6089 3.14453 15C3.14453 13.3911 3.46436 11.8604 4.04053 10.4639C4.64111 9.01611 5.52246 7.70996 6.61621 6.61621C7.70996 5.52246 9.01611 4.64111 10.4639 4.04053C11.8579 3.46191 13.3911 3.14453 15 3.14453C16.6089 3.14453 18.1396 3.46436 19.5361 4.04053Z" fill="white"/>
</svg>
