<svg width="21" height="16" viewBox="0 0 21 16" fill="none" xmlns="http://www.w3.org/2000/svg">
<path d="M1.15498 7.91941C1.63025 7.1056 2.12831 6.36557 2.64428 5.69931C4.97831 2.69076 7.74856 1.0839 10.6051 1.00321C13.4551 0.922518 16.3783 2.36339 19.02 5.45032C19.6515 6.18805 20.2619 7.01108 20.8495 7.92632C21.0383 8.22141 21.048 8.65713 20.8869 8.96606C20.2147 10.3101 19.4415 11.4605 18.5968 12.4149C16.4825 14.8056 13.9141 15.9814 11.3115 15.9998C8.71864 16.016 6.09325 14.8794 3.85687 12.6409C2.8575 11.6403 1.93462 10.4208 1.12568 8.98681C0.945016 8.66405 0.96292 8.20989 1.15498 7.91941ZM11.0006 7.10099C11.0966 7.10099 11.191 7.12174 11.2789 7.15632C11.204 7.27159 11.1601 7.42605 11.1601 7.59434C11.1601 7.95399 11.3652 8.24447 11.6191 8.24447C11.7444 8.24447 11.8567 8.1753 11.9397 8.06003C11.9723 8.19836 11.9886 8.3459 11.9886 8.49806C11.9886 9.27037 11.5459 9.89744 11.0006 9.89744C10.4553 9.89744 10.0126 9.27037 10.0126 8.49806C10.0126 7.72806 10.4553 7.10099 11.0006 7.10099ZM11.0006 3.49534C11.9755 3.49534 12.8594 4.05556 13.499 4.96158C14.1387 5.8676 14.5342 7.11713 14.5342 8.50037C14.5342 9.8813 14.1387 11.1331 13.499 12.0392C12.8594 12.9452 11.9772 13.5054 11.0006 13.5054C10.0256 13.5054 9.14182 12.9452 8.50216 12.0392C7.8625 11.1331 7.46698 9.88361 7.46698 8.50037C7.46698 7.11943 7.8625 5.8676 8.50216 4.96158C9.14182 4.05556 10.0256 3.49534 11.0006 3.49534ZM12.7015 6.09122C12.2669 5.47568 11.6647 5.09299 11.0006 5.09299C10.3365 5.09299 9.73429 5.47338 9.29971 6.09122C8.86513 6.70677 8.59494 7.55976 8.59494 8.50037C8.59494 9.44097 8.8635 10.294 9.29971 10.9095C9.73429 11.525 10.3365 11.9077 11.0006 11.9077C11.6647 11.9077 12.2669 11.5274 12.7015 10.9095C13.1361 10.294 13.4062 9.44097 13.4062 8.50037C13.4062 7.55976 13.1361 6.70677 12.7015 6.09122ZM3.42392 6.90964C3.0463 7.39608 2.68171 7.92171 2.3334 8.48192C2.99585 9.57007 3.73317 10.5107 4.52257 11.3014C6.56364 13.3417 8.95139 14.3791 11.3082 14.3653C13.6553 14.3492 15.9714 13.2887 17.879 11.1331C18.5301 10.3977 19.1323 9.53319 19.6743 8.53956C19.2202 7.86869 18.7579 7.26237 18.2892 6.71368C15.8656 3.88496 13.2077 2.56627 10.6279 2.63774C8.05456 2.71151 5.54636 4.17313 3.42392 6.90964Z" fill="white"/>
<line x1="1.39269" y1="1.75423" x2="19.7542" y2="14.6073" stroke="white" stroke-width="2" stroke-linecap="round"/>
</svg>
