<svg width="21" height="26" viewBox="0 0 21 26" fill="none" xmlns="http://www.w3.org/2000/svg">
<path fill-rule="evenodd" clip-rule="evenodd" d="M3.82348 0.0096555H19.0734V11.5962H10.3833C9.98031 11.5956 9.59359 11.7494 9.30805 12.0236C9.02252 12.2979 8.86151 12.6703 8.86039 13.059V18.3202H3.61044C2.1888 18.4443 2.69291 20.2733 3.61044 20.1777H8.86039V21.2987H3.67161C1.53704 21.3272 0.830438 21.2173 0.830438 19.7098V18.0455C0.598659 18.0054 0.388891 17.8879 0.237812 17.7137C0.0867328 17.5394 0.00395651 17.3195 0.00395651 17.0924C0.00395651 16.8652 0.0867328 16.6453 0.237812 16.4711C0.388891 16.2968 0.598659 16.1794 0.830438 16.1392V14.6113C0.598659 14.5711 0.388891 14.4537 0.237812 14.2794C0.0867328 14.1052 0.00395651 13.8853 0.00395651 13.6581C0.00395651 13.431 0.0867328 13.2111 0.237812 13.0368C0.388891 12.8626 0.598659 12.7451 0.830438 12.705V11.1771C0.598659 11.1369 0.388891 11.0194 0.237812 10.8452C0.0867328 10.6709 0.00395651 10.451 0.00395651 10.2239C0.00395651 9.99674 0.0867328 9.77683 0.237812 9.60259C0.388891 9.42835 0.598659 9.31088 0.830438 9.27072V7.74281C0.592387 7.71524 0.374168 7.60123 0.220176 7.42397C0.0661841 7.24671 -0.012011 7.01952 0.00149919 6.78863C-0.0109966 6.55796 0.0675648 6.33129 0.221369 6.15425C0.375173 5.97721 0.592799 5.86294 0.830438 5.83444V4.30856C0.592594 4.28053 0.374672 4.16639 0.220774 3.98924C0.0668771 3.81209 -0.0115019 3.58516 0.00149919 3.35438C-0.0115019 3.1236 0.0668771 2.89667 0.220774 2.71952C0.374672 2.54237 0.592594 2.42823 0.830438 2.4002C0.832548 0.406384 0.950666 -0.0778282 3.82348 0.0096555ZM11.2249 13.1444H19.2991C19.4851 13.1455 19.6631 13.2172 19.7946 13.344C19.926 13.4709 20.0004 13.6426 20.0015 13.8219V24.322C20.0008 24.4112 19.9818 24.4993 19.9456 24.5814C19.9094 24.6634 19.8567 24.7378 19.7906 24.8001C19.7263 24.8643 19.6493 24.9153 19.5641 24.9503C19.479 24.9852 19.3874 25.0033 19.2949 25.0035H11.2249C11.0389 25.0025 10.8609 24.9308 10.7294 24.8039C10.598 24.6771 10.5236 24.5054 10.5225 24.3261V13.8219C10.5236 13.6426 10.598 13.4709 10.7294 13.344C10.8609 13.2172 11.0389 13.1455 11.2249 13.1444V13.1444ZM18.4196 14.8168H12.1065V16.66H18.4196V14.8168ZM17.2278 20.3283H18.3521C18.3985 20.3283 18.443 20.346 18.4759 20.3777C18.5087 20.4094 18.5271 20.4523 18.5271 20.4971V21.4147C18.5271 21.4595 18.5087 21.5024 18.4759 21.5341C18.443 21.5658 18.3985 21.5835 18.3521 21.5835H17.2278C17.1812 21.5835 17.1364 21.5658 17.1033 21.5342C17.0701 21.5026 17.0512 21.4597 17.0506 21.4147V20.4971C17.0512 20.4521 17.0701 20.4092 17.1033 20.3776C17.1364 20.346 17.1812 20.3283 17.2278 20.3283ZM17.2278 18.1513H18.3521C18.3987 18.1519 18.4432 18.1701 18.476 18.2021C18.5088 18.2341 18.5271 18.2773 18.5271 18.3222V19.2378C18.5271 19.2825 18.5087 19.3255 18.4759 19.3572C18.443 19.3888 18.3985 19.4066 18.3521 19.4066H17.2278C17.1812 19.4066 17.1364 19.3889 17.1033 19.3573C17.0701 19.3257 17.0512 19.2827 17.0506 19.2378V18.3222C17.0512 18.2771 17.07 18.2339 17.1031 18.202C17.1363 18.17 17.181 18.1519 17.2278 18.1513ZM17.2278 22.5052H18.3521C18.3985 22.5052 18.443 22.523 18.4759 22.5546C18.5087 22.5863 18.5271 22.6293 18.5271 22.674V23.5997C18.5271 23.6447 18.5088 23.6879 18.476 23.7199C18.4432 23.7519 18.3987 23.7701 18.3521 23.7706H17.2278C17.1808 23.7706 17.1358 23.7526 17.1025 23.7206C17.0693 23.6885 17.0506 23.6451 17.0506 23.5997V22.6842C17.0517 22.6394 17.0708 22.5968 17.1039 22.5653C17.1369 22.5338 17.1814 22.5159 17.2278 22.5153V22.5052ZM14.6967 20.3283H15.8209C15.8676 20.3283 15.9123 20.346 15.9455 20.3776C15.9787 20.4092 15.9976 20.4521 15.9981 20.4971V21.4147C15.9976 21.4597 15.9787 21.5026 15.9455 21.5342C15.9123 21.5658 15.8676 21.5835 15.8209 21.5835H14.6883C14.6416 21.5835 14.5969 21.5658 14.5637 21.5342C14.5306 21.5026 14.5117 21.4597 14.5111 21.4147V20.4971C14.5117 20.4521 14.5306 20.4092 14.5637 20.3776C14.5969 20.346 14.6416 20.3283 14.6883 20.3283H14.6967ZM14.6967 18.1513H15.8209C15.8678 18.1519 15.9125 18.17 15.9456 18.202C15.9787 18.2339 15.9976 18.2771 15.9981 18.3222V19.2378C15.9976 19.2827 15.9787 19.3257 15.9455 19.3573C15.9123 19.3889 15.8676 19.4066 15.8209 19.4066H14.6883C14.6416 19.4066 14.5969 19.3889 14.5637 19.3573C14.5306 19.3257 14.5117 19.2827 14.5111 19.2378V18.3222C14.5116 18.2771 14.5305 18.2339 14.5636 18.202C14.5967 18.17 14.6415 18.1519 14.6883 18.1513H14.6967ZM14.6967 22.5052H15.8209C15.8676 22.5052 15.9123 22.5229 15.9455 22.5545C15.9787 22.5861 15.9976 22.6291 15.9981 22.674V23.5997C15.9976 23.6449 15.9787 23.6881 15.9456 23.72C15.9125 23.7519 15.8678 23.7701 15.8209 23.7706H14.6883C14.6413 23.7706 14.5962 23.7526 14.563 23.7206C14.5298 23.6885 14.5111 23.6451 14.5111 23.5997V22.6842C14.5122 22.6394 14.5313 22.5968 14.5643 22.5653C14.5974 22.5338 14.6418 22.5159 14.6883 22.5153L14.6967 22.5052ZM12.1951 18.1513H13.3194C13.3664 18.1513 13.4114 18.1693 13.4447 18.2014C13.4779 18.2334 13.4965 18.2769 13.4965 18.3222V19.2378C13.496 19.2827 13.4771 19.3257 13.4439 19.3573C13.4107 19.3889 13.366 19.4066 13.3194 19.4066H12.1951C12.1487 19.4066 12.1042 19.3888 12.0713 19.3572C12.0385 19.3255 12.0201 19.2825 12.0201 19.2378V18.3222C12.0201 18.2773 12.0384 18.2341 12.0712 18.2021C12.104 18.1701 12.1485 18.1519 12.1951 18.1513V18.1513ZM12.1951 22.5052H13.3194C13.366 22.5052 13.4107 22.5229 13.4439 22.5545C13.4771 22.5861 13.496 22.6291 13.4965 22.674V23.5997C13.4965 23.6451 13.4779 23.6885 13.4447 23.7206C13.4114 23.7526 13.3664 23.7706 13.3194 23.7706H12.1951C12.1492 23.7691 12.1058 23.7504 12.0739 23.7185C12.042 23.6866 12.0243 23.644 12.0243 23.5997V22.6842C12.0248 22.6396 12.0434 22.5969 12.0762 22.5654C12.1089 22.5338 12.1531 22.5159 12.1993 22.5153L12.1951 22.5052ZM12.1951 20.3283H13.3194C13.366 20.3283 13.4107 20.346 13.4439 20.3776C13.4771 20.4092 13.496 20.4521 13.4965 20.4971V21.4147C13.496 21.4597 13.4771 21.5026 13.4439 21.5342C13.4107 21.5658 13.366 21.5835 13.3194 21.5835H12.1951C12.1487 21.5835 12.1042 21.5658 12.0713 21.5341C12.0385 21.5024 12.0201 21.4595 12.0201 21.4147V20.4971C12.0201 20.4523 12.0385 20.4094 12.0713 20.3777C12.1042 20.346 12.1487 20.3283 12.1951 20.3283V20.3283ZM19.2991 13.5961H11.2249C11.1631 13.5966 11.1041 13.6206 11.0607 13.6629C11.0172 13.7052 10.9929 13.7624 10.9929 13.8219V24.322C10.9929 24.3815 11.0172 24.4387 11.0607 24.481C11.1041 24.5233 11.1631 24.5473 11.2249 24.5478H19.2991C19.3609 24.5468 19.4198 24.5226 19.4635 24.4805C19.5071 24.4384 19.5322 24.3816 19.5332 24.322V13.8219C19.5322 13.7623 19.5071 13.7055 19.4635 13.6634C19.4198 13.6213 19.3609 13.5971 19.2991 13.5961ZM10.1808 4.32687C10.0737 4.31265 9.97643 4.25935 9.90893 4.17797C9.84143 4.09658 9.80888 3.99331 9.818 3.88946C9.81057 3.78661 9.84389 3.68487 9.91123 3.60481C9.97858 3.52475 10.0749 3.47233 10.1808 3.45814H16.5655C16.6726 3.47236 16.7699 3.52566 16.8374 3.60705C16.9049 3.68844 16.9374 3.7917 16.9283 3.89556C16.9374 3.99941 16.9049 4.10268 16.8374 4.18407C16.7699 4.26546 16.6726 4.31876 16.5655 4.33298L10.1808 4.32687ZM10.1808 8.76006C10.0772 8.73839 9.98445 8.68317 9.91792 8.60359C9.8514 8.52402 9.81512 8.42487 9.81512 8.32264C9.81512 8.22041 9.8514 8.12127 9.91792 8.04169C9.98445 7.96211 10.0772 7.90689 10.1808 7.88522H14.3782C14.4818 7.90689 14.5746 7.96211 14.6411 8.04169C14.7076 8.12127 14.7439 8.22041 14.7439 8.32264C14.7439 8.42487 14.7076 8.52402 14.6411 8.60359C14.5746 8.68317 14.4818 8.73839 14.3782 8.76006H10.1808ZM10.1808 6.54245C10.0733 6.52822 9.97571 6.47463 9.90816 6.3928C9.8406 6.31097 9.80831 6.20719 9.818 6.103C9.80945 5.99948 9.84226 5.89672 9.9097 5.81578C9.97715 5.73483 10.0741 5.68182 10.1808 5.66761H15.2536C15.3591 5.68323 15.4545 5.73683 15.5206 5.81762C15.5868 5.89842 15.6187 6.00039 15.61 6.103C15.6191 6.20685 15.5866 6.31012 15.5191 6.39151C15.4516 6.4729 15.3543 6.5262 15.2472 6.54042L10.1808 6.54245ZM5.6965 8.81092C5.51721 8.80075 5.48558 8.78651 5.31472 8.76413C5.14387 8.74175 5.01521 8.72344 4.87389 8.69902C4.73257 8.67461 4.59758 8.64409 4.4668 8.61154V7.49053C4.63765 7.50477 4.82327 7.51698 5.02154 7.52512C5.21981 7.53325 5.42019 7.54343 5.62479 7.5475C5.82938 7.55156 6.01922 7.5475 6.19429 7.5475C6.33588 7.55051 6.47738 7.53822 6.61614 7.51087C6.70875 7.49555 6.79502 7.45536 6.86503 7.39491C6.8936 7.36558 6.91579 7.33103 6.93028 7.29329C6.94477 7.25555 6.95128 7.21539 6.9494 7.17518V7.0877C6.95218 7.04134 6.94282 6.99504 6.92218 6.95309C6.90153 6.91113 6.87028 6.87487 6.83128 6.84763C6.75018 6.79368 6.65345 6.7659 6.55497 6.76828H6.15421C5.56924 6.76828 5.1263 6.64418 4.82538 6.39597C4.52446 6.14776 4.37329 5.73272 4.37189 5.15085V4.91892C4.35478 4.6961 4.39074 4.47246 4.47702 4.26512C4.5633 4.05777 4.69761 3.87221 4.86967 3.72263C5.09322 3.51124 5.38495 3.37988 5.6965 3.35031V2.88645H6.82706V3.33404C7.24146 3.3631 7.65192 3.43124 8.05254 3.53749V4.6585C7.82053 4.64019 7.56109 4.62391 7.27001 4.61171C6.97893 4.5995 6.71738 4.59339 6.48115 4.59339C6.35458 4.59222 6.22818 4.60244 6.10359 4.62391C6.0079 4.63541 5.91849 4.67603 5.84837 4.73988C5.816 4.77402 5.79124 4.81421 5.77564 4.85795C5.76004 4.9017 5.75392 4.94807 5.75767 4.99419V5.06743C5.75425 5.11937 5.76333 5.17137 5.78418 5.21936C5.80504 5.26736 5.83711 5.31006 5.8779 5.34413C5.98647 5.41459 6.11656 5.44757 6.24702 5.43771H6.75113C7.05701 5.4305 7.35952 5.50064 7.62858 5.64116C7.85522 5.76149 8.03954 5.94423 8.15801 6.16607C8.27927 6.39949 8.34006 6.65779 8.33518 6.91883V7.1589C8.35942 7.52665 8.27299 7.89332 8.08629 8.21481C7.92021 8.45166 7.67061 8.62228 7.38391 8.69496C7.20804 8.75676 7.02424 8.79509 6.83761 8.80889V9.32769H5.6965V8.81092Z" fill="#5C5C5C"/>
</svg>
