<svg width="20" height="25" viewBox="0 0 20 25" fill="none" xmlns="http://www.w3.org/2000/svg">
<path fill-rule="evenodd" clip-rule="evenodd" d="M0 17.0897V7.36887H20V17.0897H0ZM2.99785 0.561408C2.94969 0.497657 2.88732 0.447102 2.81614 0.41413C2.74497 0.381158 2.66714 0.366765 2.58941 0.372199C2.23178 0.416958 2.16142 0.803514 2.12429 1.10055C2.0129 1.95504 1.4872 4.58159 1.4188 5.04953C1.40443 5.12267 1.40628 5.19826 1.42423 5.27054C1.44218 5.34282 1.47575 5.40988 1.52238 5.4666C1.56931 5.52275 1.62772 5.56724 1.69332 5.59681C1.75893 5.62639 1.83006 5.64029 1.9015 5.6375C2.34512 5.63343 4.81532 5.49305 5.66738 5.50933C5.9703 5.50933 6.4061 5.53374 6.51163 5.14312C6.52891 5.0639 6.52726 4.98148 6.50681 4.90309C6.48637 4.8247 6.44776 4.75273 6.39437 4.69349L5.41724 3.49923C7.21224 2.46713 9.28091 2.07054 11.3113 2.36926C13.3417 2.66798 15.2238 3.64581 16.6738 5.15532C16.9044 5.39539 17.1214 5.64564 17.3227 5.90199H19.9824C19.0299 4.24545 17.7116 2.84934 16.1369 1.82958C14.5622 0.809813 12.7766 0.195808 10.9283 0.0385402C8.49523 -0.166602 6.06187 0.430591 3.97303 1.74549L2.9959 0.561408H2.99785ZM18.2412 24.2593C18.2912 24.3215 18.3552 24.37 18.4274 24.4005C18.4996 24.431 18.5779 24.4426 18.6555 24.4343C19.0092 24.3773 19.0698 23.9908 19.0991 23.6917C19.1851 22.8331 19.6326 20.1924 19.6854 19.7204C19.6967 19.6471 19.692 19.572 19.6716 19.5009C19.6512 19.4298 19.6156 19.3644 19.5675 19.3096C19.5194 19.2548 19.46 19.212 19.3938 19.1845C19.3276 19.157 19.2562 19.1454 19.1851 19.1507C18.7434 19.169 16.2771 19.3969 15.4153 19.3969C15.1124 19.3969 14.6766 19.3969 14.5828 19.7895C14.5681 19.8693 14.5723 19.9516 14.5951 20.0292C14.618 20.1069 14.6587 20.1775 14.7137 20.2351L15.7631 21.4334C13.9623 22.5025 11.874 22.9261 9.81934 22.639C7.7647 22.3519 5.85756 21.3701 4.39124 19.8445C4.07667 19.5099 3.78478 19.153 3.51769 18.7763H0.912644C1.68066 20.214 2.72195 21.4737 3.973 22.4786C5.22404 23.4835 6.65862 24.2126 8.18922 24.6213C9.71983 25.0301 11.3144 25.1099 12.8756 24.856C14.4368 24.6021 15.932 24.0197 17.2699 23.1444L18.247 24.2593H18.2412ZM11.8272 13.2242C11.6308 13.6344 11.3218 13.9748 10.9395 14.2022C10.5571 14.4297 10.1186 14.5339 9.67932 14.5018C9.24005 14.4697 8.8198 14.3027 8.47174 14.0219C8.12367 13.7411 7.86342 13.3591 7.72393 12.9243C7.58443 12.4895 7.57195 12.0213 7.68807 11.5791C7.80418 11.1369 8.04367 10.7405 8.37624 10.4401C8.70881 10.1396 9.11952 9.94856 9.5564 9.89114C9.99328 9.83372 10.4367 9.91249 10.8306 10.1175C11.092 10.2533 11.3252 10.4413 11.5168 10.671C11.7084 10.9006 11.8547 11.1673 11.9472 11.4558C12.0398 11.7443 12.0768 12.049 12.0563 12.3524C12.0357 12.6559 11.9578 12.9521 11.8272 13.2242ZM16.8321 15.5801L3.19719 15.4845C3.1905 15.0857 3.0323 14.706 2.75722 14.4284C2.48214 14.1508 2.1126 13.9979 1.72953 14.0034L1.6709 10.4471C2.05413 10.4401 2.41912 10.2755 2.68608 9.98917C2.95305 9.70285 3.10027 9.31815 3.09556 8.91916L16.7325 9.01275C16.7391 9.41171 16.8973 9.79168 17.1723 10.0696C17.4473 10.3475 17.8169 10.5008 18.2001 10.4959L18.2587 14.0522C17.875 14.0581 17.5092 14.2223 17.2417 14.5088C16.9742 14.7953 16.8269 15.1806 16.8321 15.5801Z" fill="#105F49"/>
</svg>
