<svg width="25" height="25" viewBox="0 0 25 25" fill="none" xmlns="http://www.w3.org/2000/svg">
<path fill-rule="evenodd" clip-rule="evenodd" d="M2.86865 0H22.1293C23.7081 0 24.998 1.29191 24.998 2.86865V22.1293C24.998 23.7061 23.7061 24.998 22.1293 24.998H2.86865C1.29191 24.998 0 23.7081 0 22.1293V2.86865C0 1.28988 1.28988 0 2.86865 0ZM16.5507 5.77393L19.1447 8.36996C19.4865 8.71175 19.4865 9.27328 19.1447 9.61304L17.7083 11.0494L13.8692 7.21029L15.3056 5.77393C15.6474 5.43213 16.2069 5.43213 16.5507 5.77393ZM10.6486 18.103C9.611 18.4245 8.57137 18.7439 7.53174 19.0674C5.0883 19.8222 5.1005 20.3247 5.76579 17.9749L6.81559 14.2721L6.81152 14.268L13.1429 7.9366L16.982 11.7757L10.6547 18.1051L10.6486 18.103ZM7.47274 14.9251L9.99349 17.4459C9.31193 17.6554 8.62834 17.865 7.94474 18.0786C6.34155 18.571 6.34969 18.9026 6.78507 17.3584L7.47274 14.9251Z" fill="#105F49"/>
</svg>
