<svg width="26" height="26" viewBox="0 0 26 26" fill="none" xmlns="http://www.w3.org/2000/svg">
<path d="M4.8069 0H21.1931C22.5154 0 23.7171 0.555917 24.5888 1.44843C25.4584 2.34093 26 3.57438 26 4.93377V21.0662C26 22.4235 25.4584 23.6569 24.5888 24.5516L24.5211 24.6145C23.6558 25.4701 22.4816 26 21.1931 26H4.8069C3.48458 26 2.28285 25.4441 1.41118 24.5516L1.34771 24.4821C0.514118 23.5917 0 22.3865 0 21.0662V4.9316C0 3.57438 0.539507 2.34093 1.41118 1.44625C2.28074 0.553746 3.48246 0 4.8069 0ZM11.7359 8.32573C11.7359 7.60912 12.3008 7.02932 12.9989 7.02932C13.6971 7.02932 14.262 7.60912 14.262 8.32573V11.7025H17.552C18.2501 11.7025 18.815 12.2823 18.815 12.9989C18.815 13.7155 18.2501 14.2953 17.552 14.2953H14.262V17.6721C14.262 18.3887 13.6971 18.9685 12.9989 18.9685C12.3008 18.9685 11.7359 18.3887 11.7359 17.6721V14.2953H8.44381C7.74563 14.2953 7.18073 13.7155 7.18073 12.9989C7.18073 12.2823 7.74563 11.7025 8.44381 11.7025H11.7337V8.32573H11.7359ZM21.191 2.22367H4.8069C4.08121 2.22367 3.42322 2.52986 2.94296 3.02063C2.46481 3.5114 2.16649 4.18892 2.16649 4.93377V21.0662C2.16649 21.7894 2.44365 22.4452 2.89218 22.9316L2.94296 22.9794C3.42111 23.4701 4.08121 23.7763 4.8069 23.7763H21.1931C21.8955 23.7763 22.5366 23.4919 23.0105 23.0293L23.0549 22.9794C23.5331 22.4886 23.8314 21.8111 23.8314 21.0662V4.9316C23.8314 4.18892 23.5331 3.5114 23.0549 3.01846C22.5768 2.52986 21.9167 2.22367 21.191 2.22367Z" fill="#105F49"/>
</svg>
