<svg width="20" height="15" viewBox="0 0 20 15" fill="none" xmlns="http://www.w3.org/2000/svg">
<path d="M0.154982 6.91941C0.630254 6.1056 1.12831 5.36557 1.64428 4.69931C3.97831 1.69076 6.74856 0.0838959 9.60507 0.0032069C12.4551 -0.0774821 15.3783 1.36339 18.02 4.45032C18.6515 5.18805 19.2619 6.01108 19.8495 6.92632C20.0383 7.22141 20.048 7.65713 19.8869 7.96606C19.2147 9.3101 18.4415 10.4605 17.5968 11.4149C15.4825 13.8056 12.9141 14.9814 10.3115 14.9998C7.71864 15.016 5.09325 13.8794 2.85687 11.6409C1.8575 10.6403 0.934623 9.42076 0.125685 7.98681C-0.0549837 7.66405 -0.0370796 7.20989 0.154982 6.91941ZM10.0006 6.10099C10.0966 6.10099 10.191 6.12174 10.2789 6.15632C10.204 6.27159 10.1601 6.42605 10.1601 6.59434C10.1601 6.95399 10.3652 7.24447 10.6191 7.24447C10.7444 7.24447 10.8567 7.1753 10.9397 7.06003C10.9723 7.19836 10.9886 7.3459 10.9886 7.49806C10.9886 8.27037 10.5459 8.89744 10.0006 8.89744C9.45533 8.89744 9.01261 8.27037 9.01261 7.49806C9.01261 6.72806 9.45533 6.10099 10.0006 6.10099ZM10.0006 2.49534C10.9755 2.49534 11.8594 3.05556 12.499 3.96158C13.1387 4.8676 13.5342 6.11713 13.5342 7.50037C13.5342 8.8813 13.1387 10.1331 12.499 11.0392C11.8594 11.9452 10.9772 12.5054 10.0006 12.5054C9.02563 12.5054 8.14182 11.9452 7.50216 11.0392C6.8625 10.1331 6.46698 8.88361 6.46698 7.50037C6.46698 6.11943 6.8625 4.8676 7.50216 3.96158C8.14182 3.05556 9.02563 2.49534 10.0006 2.49534ZM11.7015 5.09122C11.2669 4.47568 10.6647 4.09299 10.0006 4.09299C9.33651 4.09299 8.73429 4.47338 8.29971 5.09122C7.86513 5.70677 7.59494 6.55976 7.59494 7.50037C7.59494 8.44097 7.8635 9.29397 8.29971 9.90951C8.73429 10.525 9.33651 10.9077 10.0006 10.9077C10.6647 10.9077 11.2669 10.5274 11.7015 9.90951C12.1361 9.29397 12.4062 8.44097 12.4062 7.50037C12.4062 6.55976 12.1361 5.70677 11.7015 5.09122ZM2.42392 5.90964C2.0463 6.39608 1.68171 6.92171 1.3334 7.48192C1.99585 8.57007 2.73317 9.51067 3.52257 10.3014C5.56364 12.3417 7.95139 13.3791 10.3082 13.3653C12.6553 13.3492 14.9714 12.2887 16.879 10.1331C17.5301 9.39771 18.1323 8.53319 18.6743 7.53956C18.2202 6.86869 17.7579 6.26237 17.2892 5.71368C14.8656 2.88496 12.2077 1.56627 9.62786 1.63774C7.05456 1.71151 4.54636 3.17313 2.42392 5.90964Z" fill="white"/>
</svg>
