<svg width="26" height="26" viewBox="0 0 26 26" fill="none" xmlns="http://www.w3.org/2000/svg">
    <g clip-path="url(#clip0_652_437)">
        <path fill-rule="evenodd" clip-rule="evenodd" d="M20.7263 0.469727L25.5248 5.21354C26.1583 5.83985 26.1583 6.86393 25.5248 7.49024L22.8709 10.1139L15.7694 3.09343L18.4234 0.469727C19.0569 -0.156576 20.0928 -0.156576 20.7263 0.469727ZM15.0203 11.0428V11.0449C15.2173 11.2396 15.3157 11.4977 15.3157 11.7516C15.3157 12.0055 15.2173 12.2616 15.0203 12.4583V12.4605L15.0182 12.4626L8.58027 18.8293H8.57813C8.52249 18.8843 8.46042 18.9308 8.39835 18.971H8.39621C8.332 19.0112 8.26565 19.043 8.19717 19.0662C7.84188 19.189 7.42881 19.1086 7.14629 18.8293H7.14415V18.8272C7.08851 18.7721 7.04142 18.7108 7.00075 18.6494V18.6473C6.96009 18.5838 6.92799 18.5182 6.90444 18.4505C6.78031 18.0993 6.86164 17.6909 7.14201 17.4116V17.4095L13.5821 11.0428H13.5842C13.7811 10.8481 14.0422 10.7508 14.2991 10.7508C14.5559 10.7508 14.8149 10.8481 15.0139 11.0428H15.0203ZM9.73388 23.0864C7.81192 23.6747 5.89209 24.2607 3.97013 24.849C-0.545838 26.2306 -0.526575 27.1511 0.70622 22.8516L2.64744 16.0807L2.64102 16.0744L14.4254 4.4222L21.5268 11.4427L9.7403 23.0949L9.73388 23.0864ZM3.85884 17.2783L8.52249 21.8888C7.25973 22.2739 5.99697 22.659 4.73635 23.042C1.76993 23.9455 1.78278 24.5506 2.58966 21.7259L3.85884 17.2783Z" fill="white" />
    </g>
    <defs>
        <clipPath id="clip0_652_437">
            <rect width="26" height="26" fill="white" />
        </clipPath>
    </defs>
</svg>