<svg width="20" height="25" viewBox="0 0 20 25" fill="none" xmlns="http://www.w3.org/2000/svg">
<path fill-rule="evenodd" clip-rule="evenodd" d="M3.82201 0.0101438H19.072V11.5966H10.3818C9.97884 11.5961 9.59212 11.7499 9.30659 12.0241C9.02105 12.2984 8.86004 12.6708 8.85893 13.0595V18.3207H3.60898C2.18734 18.4448 2.69145 20.2738 3.60898 20.1782H8.85893V21.2992H3.67015C1.53558 21.3277 0.828974 21.2178 0.828974 19.7103V18.046C0.597194 18.0059 0.387426 17.8884 0.236347 17.7142C0.0852679 17.5399 0.00249167 17.32 0.00249167 17.0929C0.00249167 16.8657 0.0852679 16.6458 0.236347 16.4716C0.387426 16.2973 0.597194 16.1799 0.828974 16.1397V14.6118C0.597194 14.5716 0.387426 14.4542 0.236347 14.2799C0.0852679 14.1057 0.00249167 13.8858 0.00249167 13.6586C0.00249167 13.4315 0.0852679 13.2116 0.236347 13.0373C0.387426 12.8631 0.597194 12.7456 0.828974 12.7055V11.1775C0.597194 11.1374 0.387426 11.0199 0.236347 10.8457C0.0852679 10.6714 0.00249167 10.4515 0.00249167 10.2244C0.00249167 9.99723 0.0852679 9.77732 0.236347 9.60308C0.387426 9.42884 0.597194 9.31137 0.828974 9.27121V7.7433C0.590922 7.71573 0.372703 7.60171 0.218711 7.42446C0.0647192 7.2472 -0.0134759 7.02001 3.43425e-05 6.78911C-0.0124614 6.55845 0.0661 6.33178 0.219904 6.15474C0.373708 5.97769 0.591334 5.86342 0.828974 5.83493V4.30905C0.591129 4.28102 0.373207 4.16688 0.21931 3.98973C0.0654122 3.81258 -0.0129667 3.58565 3.43425e-05 3.35487C-0.0129667 3.12409 0.0654122 2.89716 0.21931 2.72001C0.373207 2.54286 0.591129 2.42872 0.828974 2.40069C0.831083 0.406872 0.949201 -0.0773399 3.82201 0.0101438ZM11.2234 13.1449H19.2977C19.4836 13.146 19.6616 13.2177 19.7931 13.3445C19.9246 13.4713 19.9989 13.643 20 13.8224V24.3225C19.9993 24.4117 19.9803 24.4998 19.9441 24.5819C19.9079 24.6639 19.8553 24.7383 19.7891 24.8006C19.7248 24.8647 19.6478 24.9158 19.5626 24.9508C19.4775 24.9857 19.386 25.0038 19.2934 25.004H11.2234C11.0375 25.003 10.8595 24.9312 10.728 24.8044C10.5965 24.6776 10.5221 24.5059 10.521 24.3265V13.8224C10.5221 13.643 10.5965 13.4713 10.728 13.3445C10.8595 13.2177 11.0375 13.146 11.2234 13.1449ZM18.4181 14.8173H12.1051V16.6605H18.4181V14.8173ZM17.2264 20.3287H18.3506C18.397 20.3287 18.4416 20.3465 18.4744 20.3782C18.5072 20.4099 18.5257 20.4528 18.5257 20.4976V21.4152C18.5257 21.46 18.5072 21.5029 18.4744 21.5346C18.4416 21.5662 18.397 21.584 18.3506 21.584H17.2264C17.1797 21.584 17.135 21.5663 17.1018 21.5347C17.0686 21.5031 17.0497 21.4601 17.0492 21.4152V20.4976C17.0497 20.4526 17.0686 20.4097 17.1018 20.3781C17.135 20.3465 17.1797 20.3287 17.2264 20.3287ZM17.2264 18.1518H18.3506C18.3972 18.1524 18.4417 18.1706 18.4745 18.2026C18.5073 18.2346 18.5257 18.2777 18.5257 18.3227V19.2382C18.5257 19.283 18.5072 19.326 18.4744 19.3577C18.4416 19.3893 18.397 19.4071 18.3506 19.4071H17.2264C17.1797 19.4071 17.135 19.3894 17.1018 19.3578C17.0686 19.3262 17.0497 19.2832 17.0492 19.2382V18.3227C17.0497 18.2776 17.0686 18.2344 17.1017 18.2025C17.1348 18.1705 17.1795 18.1524 17.2264 18.1518ZM17.2264 22.5057H18.3506C18.397 22.5057 18.4416 22.5235 18.4744 22.5551C18.5072 22.5868 18.5257 22.6297 18.5257 22.6745V23.6002C18.5257 23.6452 18.5073 23.6884 18.4745 23.7204C18.4417 23.7523 18.3972 23.7706 18.3506 23.7711H17.2264C17.1794 23.7711 17.1343 23.7531 17.1011 23.7211C17.0679 23.689 17.0492 23.6456 17.0492 23.6002V22.6847C17.0503 22.6399 17.0694 22.5972 17.1024 22.5657C17.1355 22.5342 17.1799 22.5163 17.2264 22.5158V22.5057ZM14.6952 20.3287H15.8195C15.8661 20.3287 15.9109 20.3465 15.944 20.3781C15.9772 20.4097 15.9961 20.4526 15.9967 20.4976V21.4152C15.9961 21.4601 15.9772 21.5031 15.944 21.5347C15.9109 21.5663 15.8661 21.584 15.8195 21.584H14.6868C14.6402 21.584 14.5954 21.5663 14.5623 21.5347C14.5291 21.5031 14.5102 21.4601 14.5096 21.4152V20.4976C14.5102 20.4526 14.5291 20.4097 14.5623 20.3781C14.5954 20.3465 14.6402 20.3287 14.6868 20.3287H14.6952ZM14.6952 18.1518H15.8195C15.8663 18.1524 15.9111 18.1705 15.9442 18.2025C15.9773 18.2344 15.9961 18.2776 15.9967 18.3227V19.2382C15.9961 19.2832 15.9772 19.3262 15.944 19.3578C15.9109 19.3894 15.8661 19.4071 15.8195 19.4071H14.6868C14.6402 19.4071 14.5954 19.3894 14.5623 19.3578C14.5291 19.3262 14.5102 19.2832 14.5096 19.2382V18.3227C14.5102 18.2776 14.529 18.2344 14.5621 18.2025C14.5952 18.1705 14.64 18.1524 14.6868 18.1518H14.6952ZM14.6952 22.5057H15.8195C15.8661 22.5057 15.9109 22.5234 15.944 22.555C15.9772 22.5866 15.9961 22.6296 15.9967 22.6745V23.6002C15.9961 23.6454 15.9773 23.6886 15.9442 23.7205C15.9111 23.7524 15.8663 23.7706 15.8195 23.7711H14.6868C14.6398 23.7711 14.5948 23.7531 14.5615 23.7211C14.5283 23.689 14.5096 23.6456 14.5096 23.6002V22.6847C14.5107 22.6399 14.5298 22.5972 14.5629 22.5657C14.5959 22.5342 14.6403 22.5163 14.6868 22.5158L14.6952 22.5057ZM12.1937 18.1518H13.3179C13.3649 18.1518 13.41 18.1698 13.4432 18.2019C13.4764 18.2339 13.4951 18.2774 13.4951 18.3227V19.2382C13.4945 19.2832 13.4756 19.3262 13.4424 19.3578C13.4093 19.3894 13.3645 19.4071 13.3179 19.4071H12.1937C12.1472 19.4071 12.1027 19.3893 12.0699 19.3577C12.037 19.326 12.0186 19.283 12.0186 19.2382V18.3227C12.0186 18.2777 12.037 18.2346 12.0697 18.2026C12.1025 18.1706 12.147 18.1524 12.1937 18.1518ZM12.1937 22.5057H13.3179C13.3645 22.5057 13.4093 22.5234 13.4424 22.555C13.4756 22.5866 13.4945 22.6296 13.4951 22.6745V23.6002C13.4951 23.6456 13.4764 23.689 13.4432 23.7211C13.41 23.7531 13.3649 23.7711 13.3179 23.7711H12.1937C12.1478 23.7695 12.1043 23.7508 12.0725 23.719C12.0406 23.6871 12.0228 23.6445 12.0228 23.6002V22.6847C12.0234 22.6401 12.042 22.5974 12.0747 22.5659C12.1074 22.5343 12.1516 22.5164 12.1979 22.5158L12.1937 22.5057ZM12.1937 20.3287H13.3179C13.3645 20.3287 13.4093 20.3465 13.4424 20.3781C13.4756 20.4097 13.4945 20.4526 13.4951 20.4976V21.4152C13.4945 21.4601 13.4756 21.5031 13.4424 21.5347C13.4093 21.5663 13.3645 21.584 13.3179 21.584H12.1937C12.1472 21.584 12.1027 21.5662 12.0699 21.5346C12.037 21.5029 12.0186 21.46 12.0186 21.4152V20.4976C12.0186 20.4528 12.037 20.4099 12.0699 20.3782C12.1027 20.3465 12.1472 20.3287 12.1937 20.3287ZM19.2977 13.5966H11.2234C11.1617 13.5971 11.1027 13.6211 11.0592 13.6634C11.0158 13.7057 10.9914 13.7629 10.9914 13.8224V24.3225C10.9914 24.382 11.0158 24.4392 11.0592 24.4814C11.1027 24.5237 11.1617 24.5478 11.2234 24.5483H19.2977C19.3594 24.5473 19.4183 24.5231 19.462 24.481C19.5057 24.4389 19.5307 24.382 19.5318 24.3225V13.8224C19.5307 13.7628 19.5057 13.706 19.462 13.6639C19.4183 13.6217 19.3594 13.5976 19.2977 13.5966ZM10.1793 4.32736C10.0723 4.31314 9.97497 4.25984 9.90747 4.17846C9.83996 4.09707 9.80742 3.9938 9.81653 3.88994C9.8091 3.7871 9.84242 3.68536 9.90977 3.6053C9.97711 3.52523 10.0735 3.47281 10.1793 3.45863H16.5641C16.6711 3.47285 16.7684 3.52615 16.8359 3.60754C16.9034 3.68892 16.936 3.79219 16.9268 3.89605C16.936 3.9999 16.9034 4.10317 16.8359 4.18456C16.7684 4.26595 16.6711 4.31925 16.5641 4.33347L10.1793 4.32736ZM10.1793 8.76055C10.0757 8.73888 9.98299 8.68366 9.91646 8.60408C9.84993 8.5245 9.81365 8.42536 9.81365 8.32313C9.81365 8.2209 9.84993 8.12176 9.91646 8.04218C9.98299 7.9626 10.0757 7.90738 10.1793 7.88571H14.3768C14.4803 7.90738 14.5731 7.9626 14.6396 8.04218C14.7061 8.12176 14.7424 8.2209 14.7424 8.32313C14.7424 8.42536 14.7061 8.5245 14.6396 8.60408C14.5731 8.68366 14.4803 8.73888 14.3768 8.76055H10.1793ZM10.1793 6.54294C10.0719 6.52871 9.97425 6.47512 9.90669 6.39329C9.83913 6.31146 9.80685 6.20767 9.81653 6.10349C9.80798 5.99996 9.84079 5.89721 9.90824 5.81626C9.97569 5.73532 10.0727 5.68231 10.1793 5.6681H15.2521C15.3576 5.68372 15.453 5.73732 15.5192 5.81811C15.5853 5.89891 15.6173 6.00088 15.6086 6.10349C15.6177 6.20734 15.5851 6.31061 15.5176 6.392C15.4501 6.47338 15.3528 6.52668 15.2458 6.5409L10.1793 6.54294ZM5.69504 8.81141C5.51575 8.80124 5.48411 8.787 5.31326 8.76462C5.14241 8.74224 5.01375 8.72393 4.87242 8.69951C4.7311 8.6751 4.59611 8.64458 4.46534 8.61203V7.49102C4.63619 7.50526 4.8218 7.51747 5.02007 7.5256C5.21834 7.53374 5.41872 7.54391 5.62332 7.54798C5.82792 7.55205 6.01775 7.54798 6.19282 7.54798C6.33441 7.55099 6.47591 7.53871 6.61467 7.51136C6.70729 7.49604 6.79355 7.45585 6.86357 7.3954C6.89214 7.36607 6.91433 7.33151 6.92882 7.29377C6.94331 7.25603 6.94981 7.21587 6.94794 7.17567V7.08819C6.95072 7.04182 6.94135 6.99553 6.92071 6.95358C6.90007 6.91162 6.86881 6.87535 6.82982 6.84811C6.74872 6.79417 6.65199 6.76639 6.5535 6.76877H6.15275C5.56778 6.76877 5.12483 6.64466 4.82391 6.39645C4.52299 6.14824 4.37183 5.73321 4.37042 5.15134V4.9194C4.35332 4.69659 4.38928 4.47295 4.47556 4.26561C4.56184 4.05826 4.69614 3.8727 4.86821 3.72311C5.09176 3.51173 5.38348 3.38036 5.69504 3.3508V2.88693H6.8256V3.33452C7.24 3.36359 7.65045 3.43173 8.05108 3.53798V4.65899C7.81906 4.64068 7.55962 4.6244 7.26854 4.61219C6.97747 4.59999 6.71592 4.59388 6.47968 4.59388C6.35312 4.59271 6.22672 4.60293 6.10212 4.6244C6.00643 4.6359 5.91703 4.67652 5.8469 4.74037C5.81453 4.77451 5.78978 4.81469 5.77418 4.85844C5.75858 4.90219 5.75246 4.94856 5.7562 4.99468V5.06792C5.75279 5.11986 5.76186 5.17186 5.78272 5.21985C5.80357 5.26785 5.83565 5.31055 5.87643 5.34462C5.98501 5.41508 6.11509 5.44806 6.24555 5.4382H6.74967C7.05555 5.43099 7.35806 5.50113 7.62712 5.64165C7.85376 5.76198 8.03808 5.94472 8.15654 6.16655C8.2778 6.39998 8.3386 6.65828 8.33372 6.91932V7.15939C8.35795 7.52714 8.27152 7.89381 8.08483 8.2153C7.91874 8.45215 7.66915 8.62277 7.38244 8.69545C7.20658 8.75725 7.02278 8.79558 6.83615 8.80938V9.32818H5.69504V8.81141Z" fill="#105F49"/>
</svg>
