<svg width="14" height="14" viewBox="0 0 14 14" fill="none" xmlns="http://www.w3.org/2000/svg">
<g clip-path="url(#clip0_654_842)">
<path d="M5.0848 0H8.9152C9.03607 0 9.15199 0.048065 9.23745 0.133621C9.32292 0.219178 9.37093 0.335217 9.37093 0.456212V4.62713H13.5454C13.6663 4.62713 13.7822 4.67519 13.8677 4.76075C13.9531 4.8463 14.0011 4.96234 14.0011 5.08334V8.91666C14.0011 9.03765 13.9531 9.15369 13.8677 9.23925C13.7822 9.3248 13.6663 9.37287 13.5454 9.37287H9.36979V13.5449C9.36979 13.6659 9.32178 13.782 9.23631 13.8675C9.15085 13.9531 9.03493 14.0011 8.91406 14.0011H5.0848C4.96393 14.0011 4.84802 13.9531 4.76255 13.8675C4.67708 13.782 4.62907 13.6659 4.62907 13.5449V9.37287H0.455729C0.334862 9.37287 0.218946 9.3248 0.13348 9.23925C0.0480142 9.15369 0 9.03765 0 8.91666V5.0822C0 4.9612 0.0480142 4.84516 0.13348 4.75961C0.218946 4.67405 0.334862 4.62599 0.455729 4.62599H4.62907V0.456212C4.62907 0.335217 4.67708 0.219178 4.76255 0.133621C4.84802 0.048065 4.96393 0 5.0848 0V0Z" fill="white"/>
</g>
<defs>
<clipPath id="clip0_654_842">
<rect width="14" height="14" fill="white"/>
</clipPath>
</defs>
</svg>
