<svg width="14" height="14" viewBox="0 0 14 14" fill="none" xmlns="http://www.w3.org/2000/svg">
<path fill-rule="evenodd" clip-rule="evenodd" d="M0.185791 11.1644L4.35002 7.0002L0.185791 2.83598C-0.0614421 2.58875 -0.0614421 2.18315 0.185791 1.93591L1.93579 0.185913C2.18302 -0.06132 2.58862 -0.06132 2.83586 0.185913L7.00008 4.35014L11.1643 0.185913C11.4115 -0.06132 11.8171 -0.06132 12.0644 0.185913L13.8144 1.93591C14.0616 2.18315 14.0616 2.58875 13.8144 2.83598L9.65015 7.0002L13.8144 11.1644C14.0616 11.4117 14.0616 11.8173 13.8144 12.0645L12.0644 13.8145C11.8171 14.0617 11.4115 14.0617 11.1643 13.8145L7.00008 9.65027L2.83586 13.8145C2.58862 14.0617 2.18302 14.0617 1.93579 13.8145L0.185791 12.0645C-0.0614421 11.8173 -0.0614421 11.4117 0.185791 11.1644Z" fill="white"/>
</svg>
