<svg width="25" height="20" viewBox="0 0 25 20" fill="none" xmlns="http://www.w3.org/2000/svg">
<path fill-rule="evenodd" clip-rule="evenodd" d="M2.28671 14.83H5.74537V15.8783H2.28671V14.83ZM17.6269 11.506C17.9389 11.5066 18.2465 11.5995 18.5246 11.7772C18.8028 11.9549 19.0438 12.2123 19.228 12.5288C19.4795 12.1041 19.8311 11.7897 20.2328 11.6304C20.6345 11.4711 21.066 11.475 21.4659 11.6414C21.8658 11.8079 22.2138 12.1285 22.4604 12.5577C22.707 12.9869 22.8398 13.5028 22.8398 14.0322C22.8398 14.5617 22.707 15.0776 22.4604 15.5068C22.2138 15.936 21.8658 16.2566 21.4659 16.4231C21.066 16.5895 20.6345 16.5934 20.2328 16.4341C19.8311 16.2748 19.4795 15.9604 19.228 15.5357C19.0229 15.878 18.7516 16.1488 18.4398 16.3224C18.128 16.4959 17.7862 16.5666 17.4466 16.5275C17.107 16.4885 16.781 16.3411 16.4995 16.0994C16.2179 15.8576 15.9902 15.5295 15.8379 15.1461C15.6855 14.7627 15.6136 14.3367 15.629 13.9086C15.6444 13.4805 15.7465 13.0644 15.9257 12.6998C16.1049 12.3352 16.3552 12.0342 16.6529 11.8253C16.9506 11.6164 17.2859 11.5065 17.6269 11.506ZM23.6246 18.9952C23.7766 18.9915 23.9219 18.9151 24.0307 18.7816C24.1395 18.6482 24.2038 18.4676 24.2105 18.2767V8.69346H0.793386V18.2767C0.790909 18.3719 0.804493 18.4667 0.833247 18.5548C0.862 18.643 0.905271 18.7224 0.960215 18.7881C1.06794 18.9247 1.21406 19.0028 1.36712 19.0054L23.6246 18.9952ZM1.37119 19.9949C1.19062 19.9966 1.01166 19.9521 0.845189 19.8642C0.678714 19.7763 0.528192 19.6468 0.402761 19.4835C0.273394 19.3259 0.170675 19.1371 0.100757 18.9284C0.0308384 18.7197 -0.00483984 18.4955 -0.0041403 18.269V1.72337C-0.00468092 1.49644 0.0305537 1.27162 0.0995292 1.06189C0.168505 0.852166 0.269855 0.661689 0.397727 0.501459C0.525599 0.34123 0.67746 0.214422 0.844542 0.128358C1.01162 0.0422939 1.19062 -0.00132134 1.37119 3.04879e-05H23.6246C23.9887 2.84855e-05 24.3379 0.181431 24.5957 0.504475C24.8535 0.827518 24.9989 1.26585 24.9999 1.72337V18.2767C24.9995 18.5029 24.9633 18.7268 24.8934 18.9353C24.8236 19.1437 24.7215 19.3327 24.593 19.4912C24.3356 19.8154 23.987 19.9992 23.6226 20.0026C16.198 20.0026 8.78018 20.0026 1.36915 20.0026L1.37119 19.9949ZM0.793386 3.72286H24.2105V1.72082C24.2103 1.62492 24.1945 1.53008 24.1641 1.44213C24.1337 1.35419 24.0892 1.275 24.0335 1.20944C23.9809 1.14015 23.9178 1.08478 23.848 1.04658C23.7781 1.00838 23.7028 0.988116 23.6266 0.98699H1.37119C1.29497 0.987973 1.21969 1.00817 1.14979 1.04638C1.0799 1.08459 1.01682 1.14004 0.964284 1.20944C0.910528 1.27619 0.868044 1.35588 0.839378 1.44375C0.810712 1.53162 0.796453 1.62586 0.797455 1.72082V3.72286H0.793386ZM7.34246 14.83H13.0981V15.8783H7.34246V14.83Z" fill="#5C5C5C"/>
</svg>
